<?xml version="1.0" encoding="iso-8859-1"?>
<!-- Generator: Adobe Illustrator 19.0.0, SVG Export Plug-In . SVG Version: 6.00 Build 0)  -->
<svg version="1.1" id="Layer_1" xmlns="http://www.w3.org/2000/svg" xmlns:xlink="http://www.w3.org/1999/xlink" x="0px" y="0px"
	 viewBox="0 0 512.094 512.094" style="enable-background:new 0 0 512.094 512.094;" xml:space="preserve">
<g>
	<g>
		<g>
			<path d="M508.974,3.14c-4.16-4.16-10.88-4.16-15.04,0L3.268,493.806c-4.267,4.053-4.373,10.88-0.213,15.04
				c4.16,4.16,10.88,4.373,15.04,0.213c0.107-0.107,0.213-0.213,0.213-0.213L508.974,18.18C513.135,14.02,513.135,7.3,508.974,3.14z
				"/>
			<path d="M106.841,191.94c47.147,0,85.333-38.187,85.333-85.333s-38.187-85.333-85.333-85.333
				c-47.147,0-85.333,38.187-85.333,85.333S59.694,191.94,106.841,191.94z M106.841,42.606c35.307,0,64,28.693,64,64
				c0,35.307-28.693,64-64,64c-35.307,0-64-28.693-64-64C42.841,71.3,71.428,42.713,106.841,42.606z"/>
			<path d="M405.508,319.94c-47.147,0-85.333,38.187-85.333,85.333s38.187,85.333,85.333,85.333
				c47.147,0,85.333-38.187,85.333-85.333C490.734,358.233,452.548,320.046,405.508,319.94z M405.508,469.273
				c-35.307,0-64-28.693-64-64s28.693-64,64-64c35.307,0,64,28.693,64,64C469.401,440.686,440.815,469.273,405.508,469.273z"/>
		</g>
	</g>
</g>
<g>
</g>
<g>
</g>
<g>
</g>
<g>
</g>
<g>
</g>
<g>
</g>
<g>
</g>
<g>
</g>
<g>
</g>
<g>
</g>
<g>
</g>
<g>
</g>
<g>
</g>
<g>
</g>
<g>
</g>
</svg>
