<?xml version="1.0" encoding="iso-8859-1"?>
<!-- Generator: Adobe Illustrator 19.0.0, SVG Export Plug-In . SVG Version: 6.00 Build 0)  -->
<svg version="1.1" id="Layer_1" xmlns="http://www.w3.org/2000/svg" xmlns:xlink="http://www.w3.org/1999/xlink" x="0px" y="0px"
	 viewBox="0 0 512 512" style="enable-background:new 0 0 512 512;" xml:space="preserve">
<g>
	<g>
		<path d="M117.869,237.368l21.21-21.209c4.505-4.504,4.505-11.806,0.001-16.309c-4.502-4.503-11.801-4.503-16.309,0l-21.21,21.21
			l-21.209-21.209c-4.502-4.503-11.801-4.503-16.309,0c-4.503,4.503-4.503,11.805,0,16.308l21.209,21.21l-21.209,21.21
			c-4.503,4.503-4.503,11.805,0,16.308c4.504,4.503,11.804,4.503,16.309,0l21.209-21.21l21.21,21.21
			c2.252,2.252,5.203,3.378,8.154,3.378s5.902-1.125,8.154-3.378c4.503-4.503,4.503-11.805,0-16.309L117.869,237.368z"/>
	</g>
</g>
<g>
	<g>
		<path d="M194.972,225.835h-4.586v-4.585c0-6.369-5.164-11.532-11.532-11.532s-11.532,5.163-11.532,11.532v4.585h-4.585
			c-6.368,0-11.532,5.163-11.532,11.532c0,6.369,5.164,11.532,11.532,11.532h4.585v4.585c0,6.369,5.164,11.532,11.532,11.532
			s11.532-5.163,11.532-11.532v-4.585h4.586c6.368,0,11.532-5.163,11.532-11.532C206.504,230.998,201.341,225.835,194.972,225.835z"
			/>
	</g>
</g>
<g>
	<g>
		<path d="M512,234.639c0-45.909-27.316-88.696-76.913-120.478C387.08,83.399,323.479,66.457,256.001,66.457
			S124.921,83.399,76.913,114.161C27.316,145.943,0,188.73,0,234.639s27.316,88.696,76.913,120.477
			c48.008,30.762,111.609,47.704,179.087,47.704c38.785,0,77.369-5.796,112-16.793l80.693,57.381
			c1.996,1.421,4.338,2.135,6.683,2.135c2.192,0,4.388-0.624,6.307-1.877c3.97-2.593,5.948-7.354,4.984-11.997l-17.862-86.067
			C489.625,315.014,512,275.85,512,234.639z M429.402,331.17c-3.787,2.64-5.635,7.283-4.697,11.804l13.41,64.612l-61.492-43.727
			c-1.978-1.407-4.317-2.135-6.684-2.135c-1.24,0-2.487,0.201-3.694,0.608c-33.703,11.399-71.825,17.424-110.245,17.424
			c-63.121,0-122.304-15.647-166.645-44.06c-42.749-27.393-66.293-63.283-66.293-101.058c0-37.776,23.544-73.666,66.293-101.059
			c44.341-28.413,103.523-44.06,166.645-44.06s122.304,15.647,166.644,44.059c42.75,27.393,66.293,63.283,66.293,101.059
			C488.937,270.132,467.794,304.415,429.402,331.17z"/>
	</g>
</g>
<g>
	<g>
		<path d="M296.724,198.771c-4.503-4.502-11.803-4.501-16.307,0.002l-21.209,21.209l-21.21-21.21
			c-4.504-4.503-11.804-4.503-16.309,0c-4.503,4.503-4.503,11.805,0,16.308l25.986,25.986v26.741
			c0,6.369,5.164,11.532,11.532,11.532s11.532-5.163,11.532-11.532v-26.742l25.985-25.986
			C301.227,210.575,301.227,203.274,296.724,198.771z"/>
	</g>
</g>
<g>
	<g>
		<path d="M444.326,255.199h-30.887l39.041-39.041c3.297-3.298,4.284-8.258,2.5-12.566c-1.785-4.309-5.99-7.118-10.654-7.118
			h-58.727c-6.368,0-11.532,5.163-11.532,11.532s5.164,11.532,11.532,11.532h30.887l-39.041,39.041
			c-3.297,3.298-4.284,8.258-2.5,12.566c1.785,4.309,5.99,7.118,10.654,7.118h58.727c6.368,0,11.532-5.163,11.532-11.532
			C455.857,260.362,450.695,255.199,444.326,255.199z"/>
	</g>
</g>
<g>
	<g>
		<path d="M350.19,241.979h-30.822c-6.368,0-11.532,5.163-11.532,11.532s5.164,11.532,11.532,11.532h30.822
			c6.368,0,11.532-5.163,11.532-11.532S356.558,241.979,350.19,241.979z"/>
	</g>
</g>
<g>
	<g>
		<path d="M350.19,209.692h-30.822c-6.368,0-11.532,5.163-11.532,11.532c0,6.369,5.164,11.532,11.532,11.532h30.822
			c6.368,0,11.532-5.163,11.532-11.532C361.722,214.855,356.558,209.692,350.19,209.692z"/>
	</g>
</g>
<g>
</g>
<g>
</g>
<g>
</g>
<g>
</g>
<g>
</g>
<g>
</g>
<g>
</g>
<g>
</g>
<g>
</g>
<g>
</g>
<g>
</g>
<g>
</g>
<g>
</g>
<g>
</g>
<g>
</g>
</svg>
