<?xml version="1.0" encoding="iso-8859-1"?>
<!-- Generator: Adobe Illustrator 19.0.0, SVG Export Plug-In . SVG Version: 6.00 Build 0)  -->
<svg version="1.1" id="Layer_1" xmlns="http://www.w3.org/2000/svg" xmlns:xlink="http://www.w3.org/1999/xlink" x="0px" y="0px"
	 viewBox="0 0 502.313 502.313" style="enable-background:new 0 0 502.313 502.313;" xml:space="preserve">
<g>
	<path style="fill:#FF5023;" d="M196.22,334.376l-28.284-28.284l83.22-83.22V0l-41.49,42.574l-54.624-23.456l-22.039,55.211
		l-59.442-0.767l0.767,59.442l-55.211,22.039l23.456,54.624L0,251.156l42.574,41.49L19.118,347.27l55.211,22.039l-0.767,59.442
		l59.442-0.767l22.039,55.211l54.624-23.456l41.49,42.574V279.44L196.22,334.376z M145.34,195.34c0-27.57,22.43-50,50-50
		s50,22.43,50,50s-22.43,50-50,50S145.34,222.911,145.34,195.34z"/>
	<path style="fill:#FF5023;" d="M205.34,195.34c0-5.514-4.486-10-10-10s-10,4.486-10,10s4.486,10,10,10
		S205.34,200.854,205.34,195.34z"/>
	<path style="fill:#FF3501;" d="M459.738,292.646l42.574-41.49l-42.574-41.49l23.457-54.624l-55.212-22.039l0.767-59.442
		l-59.441,0.767l-22.038-55.211l-54.624,23.456L251.156,0v222.872l54.936-54.936l28.284,28.284l-83.22,83.22v222.872l41.49-42.574
		l54.624,23.456l22.038-55.211l59.441,0.767l-0.767-59.442l55.212-22.039L459.738,292.646z M306.972,356.972
		c-27.57,0-50-22.43-50-50s22.43-50,50-50s50,22.43,50,50S334.542,356.972,306.972,356.972z"/>
	<path style="fill:#FF3501;" d="M306.972,296.972c-5.514,0-10,4.486-10,10s4.486,10,10,10s10-4.486,10-10
		S312.486,296.972,306.972,296.972z"/>
	<path style="fill:#FFDA44;" d="M245.34,195.34c0-27.57-22.43-50-50-50s-50,22.43-50,50s22.43,50,50,50
		S245.34,222.911,245.34,195.34z M185.34,195.34c0-5.514,4.486-10,10-10s10,4.486,10,10s-4.486,10-10,10
		S185.34,200.854,185.34,195.34z"/>
	<path style="fill:#FFDA44;" d="M306.972,256.972c-27.57,0-50,22.43-50,50s22.43,50,50,50s50-22.43,50-50
		S334.542,256.972,306.972,256.972z M306.972,316.972c-5.514,0-10-4.486-10-10s4.486-10,10-10s10,4.486,10,10
		S312.486,316.972,306.972,316.972z"/>
	<polygon style="fill:#FFDA44;" points="196.22,334.376 251.156,279.44 334.376,196.22 306.092,167.936 251.156,222.872 
		167.936,306.092 	"/>
</g>
<g>
</g>
<g>
</g>
<g>
</g>
<g>
</g>
<g>
</g>
<g>
</g>
<g>
</g>
<g>
</g>
<g>
</g>
<g>
</g>
<g>
</g>
<g>
</g>
<g>
</g>
<g>
</g>
<g>
</g>
</svg>
