<?xml version="1.0" standalone="no"?>
<!DOCTYPE svg PUBLIC "-//W3C//DTD SVG 20010904//EN"
 "http://www.w3.org/TR/2001/REC-SVG-20010904/DTD/svg10.dtd">
<svg version="1.0" xmlns="http://www.w3.org/2000/svg"
 width="6755.000000pt" height="29974.000000pt" viewBox="0 0 6755.000000 29974.000000"
 preserveAspectRatio="xMidYMid meet">
<metadata>
Created by potrace 1.16, written by Peter Selinger 2001-2019
</metadata>
<g transform="translate(0.000000,29974.000000) scale(0.100000,-0.100000)"
fill="#000000" stroke="none">
<path d="M55775 285310 c-2 -4 -2 -96 0 -206 2 -109 7 -489 10 -844 4 -355 9
-717 10 -805 2 -88 4 -199 4 -246 l1 -85 43 -24 c23 -13 74 -42 112 -65 39
-23 104 -61 145 -85 41 -24 95 -55 120 -70 25 -15 79 -46 120 -70 41 -24 95
-55 120 -70 25 -15 90 -53 145 -85 55 -32 120 -70 145 -85 25 -15 79 -46 120
-70 41 -24 95 -55 120 -70 25 -15 79 -46 120 -70 41 -24 95 -55 120 -70 25
-15 90 -53 145 -85 55 -32 120 -70 145 -85 25 -15 79 -46 120 -70 41 -24 95
-55 120 -70 25 -15 79 -46 120 -70 41 -24 95 -55 120 -70 25 -15 86 -51 136
-80 51 -30 90 -59 88 -64 -6 -15 -177 -149 -266 -208 -97 -65 -312 -194 -418
-250 -80 -43 -155 -82 -375 -198 -340 -179 -359 -189 -500 -270 -240 -139
-395 -243 -551 -371 -112 -93 -268 -270 -330 -375 -27 -46 -31 -81 -19 -194 2
-19 6 -84 10 -145 3 -60 8 -135 10 -165 13 -188 19 -276 30 -455 3 -44 8 -109
10 -145 3 -36 7 -105 10 -155 3 -49 8 -119 10 -155 2 -36 7 -103 10 -150 11
-173 14 -217 20 -310 4 -52 8 -96 8 -96 3 -3 654 -13 1237 -20 272 -3 555 -7
627 -8 90 -2 136 0 141 8 5 6 27 45 49 86 51 94 77 143 168 305 82 147 112
202 163 295 19 36 52 94 72 130 20 36 54 97 75 135 84 154 101 184 160 290 34
61 81 146 105 190 24 44 71 130 105 190 59 105 102 183 168 305 17 30 47 84
67 120 20 36 54 96 74 133 48 88 62 114 121 220 57 102 43 108 139 -53 35 -58
114 -188 176 -290 62 -102 139 -228 170 -280 32 -52 101 -167 155 -255 54 -88
124 -203 155 -255 32 -52 101 -167 155 -255 54 -88 124 -203 155 -255 31 -52
101 -167 155 -255 53 -88 135 -223 182 -300 46 -77 90 -148 97 -157 12 -16 92
-17 1127 -20 l1114 -3 -1 425 c-1 391 -10 912 -18 1020 -2 25 -7 90 -11 145
-3 55 -8 114 -11 130 -2 17 -6 46 -8 65 -19 152 -56 301 -97 387 -70 146 -165
233 -354 323 -117 56 -141 66 -295 130 -191 80 -250 107 -450 207 -261 131
-416 221 -662 386 -170 115 -501 356 -567 414 -8 6 22 29 74 58 51 28 191 106
255 142 44 25 112 63 220 123 108 60 176 98 220 123 19 11 73 41 120 67 105
58 174 97 220 123 19 11 73 41 120 67 105 58 174 97 220 123 19 11 73 41 120
67 105 58 174 97 220 123 19 11 73 41 120 67 105 58 174 97 220 123 19 11 73
41 120 67 47 26 103 57 125 70 22 12 54 30 71 41 l31 19 -1 1112 -1 1113 -925
-3 c-682 -3 -929 -7 -941 -15 -181 -133 -415 -315 -452 -353 -27 -27 -77 -92
-111 -144 -58 -87 -79 -123 -169 -290 -16 -30 -38 -68 -47 -85 -10 -16 -32
-57 -50 -90 -54 -99 -91 -168 -118 -215 -31 -56 -92 -171 -172 -325 -35 -66
-76 -144 -91 -172 -16 -29 -43 -79 -60 -110 -131 -240 -282 -455 -422 -600
-73 -75 -93 -91 -103 -81 -7 7 -34 54 -62 103 -27 50 -60 108 -72 130 -22 39
-82 147 -165 295 -23 41 -53 93 -65 115 -22 39 -80 142 -165 295 -23 41 -53
93 -65 115 -12 22 -42 74 -65 115 -83 148 -143 256 -165 295 -26 46 -105 187
-145 260 -15 28 -31 55 -35 60 -4 6 -21 35 -37 65 -31 56 -113 204 -153 275
-52 92 -115 205 -152 273 l-40 72 -231 0 c-244 1 -1293 9 -1700 14 -131 1
-240 -1 -242 -4z"/>
<path d="M55740 276128 c0 -271 -3 -754 -7 -1073 l-6 -581 48 -84 c154 -273
248 -356 586 -519 479 -230 453 -217 1194 -613 256 -137 488 -278 658 -400
l47 -35 -162 -101 c-805 -499 -1605 -923 -2143 -1135 -77 -30 -157 -60 -179
-67 l-38 -12 7 -747 c4 -410 9 -757 11 -771 1 -14 4 -198 5 -410 2 -212 5
-435 8 -496 l6 -111 225 122 c124 66 320 172 435 234 180 98 483 261 1075 581
74 40 302 163 505 273 204 110 486 262 628 338 141 77 365 198 497 269 132 71
356 192 497 269 269 144 874 471 1193 644 102 55 301 162 443 238 141 77 364
197 495 268 457 247 878 474 980 528 56 30 102 58 102 63 0 14 -1769 1066
-1936 1151 -373 191 -728 382 -1844 994 -1698 930 -2469 1329 -2997 1551 -103
43 -317 124 -328 124 -3 0 -5 -222 -5 -492z"/>
<path d="M47990 276273 c-508 -57 -935 -357 -1174 -823 -129 -252 -187 -486
-188 -760 -1 -367 108 -685 325 -956 237 -293 616 -510 1032 -591 123 -23 378
-23 497 0 267 53 509 182 716 381 298 287 488 678 541 1116 13 106 6 348 -14
455 -95 525 -418 891 -945 1073 -221 76 -415 110 -625 110 -71 -1 -146 -3
-165 -5z"/>
<path d="M51748 274185 c-2 -1 -46 -5 -98 -9 -105 -7 -109 -7 -260 -37 -612
-122 -1036 -566 -1151 -1205 -30 -168 -30 -440 0 -608 88 -491 365 -883 768
-1089 235 -119 463 -169 762 -166 481 5 858 145 1136 424 230 229 369 521 420
880 13 98 14 377 0 455 -28 162 -41 218 -75 322 -120 366 -354 661 -665 841
-148 86 -344 152 -522 177 -73 10 -308 21 -315 15z"/>
<path d="M47920 272114 c-221 -34 -444 -119 -616 -234 -101 -69 -239 -202
-320 -309 -122 -164 -229 -407 -273 -623 -26 -124 -32 -180 -36 -323 -17 -594
262 -1142 723 -1419 144 -87 336 -154 521 -182 97 -14 392 -21 446 -11 11 3
47 8 80 12 181 21 389 85 556 172 480 248 758 746 743 1334 -18 703 -442 1315
-1052 1519 -166 55 -279 73 -487 76 -128 1 -221 -2 -285 -12z"/>
<path d="M47346 250776 c4 -341 8 -657 8 -701 l1 -80 60 -36 c33 -19 105 -62
160 -94 55 -32 120 -70 145 -85 25 -15 79 -46 120 -70 41 -24 95 -55 120 -70
25 -15 79 -46 120 -70 41 -24 95 -55 120 -70 25 -15 90 -53 145 -85 55 -32
120 -70 145 -85 25 -15 79 -46 120 -70 41 -24 95 -55 120 -70 25 -15 75 -44
112 -66 37 -21 68 -42 68 -46 0 -4 -26 -28 -57 -53 -121 -96 -251 -175 -528
-320 -291 -153 -323 -170 -440 -238 -243 -140 -428 -294 -520 -432 l-37 -56 7
-112 c3 -62 8 -132 10 -157 2 -25 7 -92 10 -150 4 -58 8 -125 10 -150 2 -25 6
-97 10 -160 3 -63 8 -131 10 -150 2 -19 7 -89 10 -155 8 -137 13 -196 18 -201
2 -2 152 -6 333 -9 181 -3 467 -7 636 -10 l307 -5 39 67 c22 38 55 97 74 133
57 104 86 157 163 295 82 147 112 202 163 295 19 36 52 94 72 130 20 36 50 90
67 120 80 148 109 200 143 260 35 61 81 145 139 252 20 37 28 45 37 35 10 -12
62 -96 236 -382 144 -238 258 -425 328 -540 37 -60 107 -175 155 -255 49 -80
122 -199 162 -266 l75 -121 715 -2 716 -2 -6 478 c-3 263 -8 487 -10 498 -3
11 -8 58 -12 104 -18 210 -64 342 -150 426 -55 54 -122 90 -335 180 -367 155
-607 293 -947 547 -73 55 -133 101 -133 103 0 3 43 28 160 93 25 14 61 34 80
45 19 11 73 41 120 67 105 58 174 97 220 123 19 11 73 41 120 67 47 26 101 56
120 67 44 25 112 63 220 123 107 60 175 98 220 123 19 11 96 53 170 94 74 41
141 80 148 85 9 8 12 165 12 725 l0 714 -595 -4 c-582 -3 -595 -4 -617 -24
-13 -11 -68 -53 -123 -93 -188 -137 -187 -136 -400 -525 -56 -101 -86 -156
-129 -237 -157 -297 -159 -301 -225 -408 -64 -103 -130 -190 -198 -260 -50
-52 -54 -54 -66 -36 -14 23 -80 139 -154 271 -28 50 -61 108 -73 130 -22 39
-82 147 -165 295 -23 41 -53 93 -65 115 -26 45 -103 185 -145 260 -15 28 -31
55 -35 60 -4 6 -21 35 -37 65 -16 30 -53 96 -80 145 -28 50 -60 108 -73 130
-12 22 -31 54 -41 72 l-20 32 -457 1 c-251 1 -564 3 -695 5 l-238 2 7 -621z"/>
<path d="M47320 245818 c-1 -2 -3 -311 -7 -688 l-6 -685 53 -89 c29 -49 79
-115 113 -149 56 -54 87 -72 306 -180 135 -65 308 -153 385 -194 78 -42 179
-96 226 -121 270 -143 550 -317 534 -331 -17 -16 -321 -199 -494 -298 -437
-250 -768 -414 -1025 -508 l-90 -33 1 -63 c1 -35 5 -397 9 -804 4 -407 10
-743 14 -748 7 -7 159 73 786 413 105 56 305 164 445 240 140 76 422 227 625
337 204 110 431 233 505 273 1071 578 1503 812 1720 929 113 61 262 142 332
179 71 37 128 69 128 72 0 10 -1148 690 -1285 760 -207 108 -595 317 -1175
635 -1080 592 -1628 873 -1957 1003 -105 42 -143 55 -143 50z"/>
<path d="M42266 245585 c-425 -86 -731 -436 -787 -899 -37 -301 79 -616 302
-819 186 -170 436 -273 685 -284 144 -7 249 11 367 62 131 56 187 95 302 210
155 155 242 309 302 532 24 89 27 115 27 278 1 158 -2 190 -22 260 -68 238
-220 427 -433 540 -82 43 -248 99 -352 118 -100 19 -302 20 -391 2z"/>
<path d="M44615 244244 c-244 -37 -420 -120 -562 -265 -133 -136 -211 -284
-254 -480 -86 -393 49 -803 341 -1040 301 -243 839 -265 1208 -47 87 51 231
199 285 292 176 303 190 691 37 1013 -54 114 -111 196 -195 279 -212 210 -520
299 -860 248z"/>
<path d="M42292 242928 c-150 -21 -324 -97 -444 -192 -282 -224 -414 -686
-307 -1076 103 -378 348 -621 707 -700 119 -27 377 -22 499 9 248 62 440 187
564 367 47 69 105 199 130 294 32 125 37 331 11 466 -88 442 -393 758 -801
829 -91 16 -259 18 -359 3z"/>
<path d="M2633 234383 c6 -48 5 -48 -61 -32 l-44 10 -89 -86 c-50 -47 -94 -85
-98 -85 -7 0 -54 -66 -93 -130 -90 -150 -197 -635 -258 -1175 -6 -49 -13 -108
-15 -130 -9 -73 -34 -369 -40 -465 -3 -52 -8 -120 -10 -150 -29 -374 -21 -989
16 -1162 13 -57 39 -80 144 -130 190 -89 442 -13 524 157 63 131 72 221 69
710 -3 414 1 501 37 775 22 168 55 438 59 495 36 414 178 628 460 690 101 23
323 16 476 -14 200 -38 520 -110 540 -121 27 -14 42 -44 29 -57 -8 -8 -7 -13
0 -18 6 -3 10 -1 9 6 -3 12 22 22 84 32 36 5 37 5 27 -20 -13 -34 -5 -40 34
-24 41 16 40 16 116 -6 46 -14 67 -26 74 -41 9 -20 18 -22 81 -23 107 -1 191
-17 401 -74 218 -59 282 -58 345 5 50 50 70 135 70 294 l0 115 -77 67 c-148
127 -231 173 -457 250 -423 145 -810 235 -1306 304 -41 6 -93 13 -115 16 -126
18 -210 22 -491 22 -319 0 -423 6 -437 26 -5 6 -6 -8 -4 -31z"/>
<path d="M62847 224090 c6 -21 4 -22 -31 -16 -35 7 -40 4 -111 -60 -85 -77
-120 -136 -159 -264 -51 -169 -100 -455 -126 -730 -6 -63 -12 -135 -15 -160
-23 -240 -28 -839 -7 -931 13 -56 13 -57 79 -90 52 -26 79 -34 122 -34 103 0
191 48 232 127 36 71 42 125 44 468 1 184 5 344 7 355 3 11 9 54 13 95 3 41 8
82 10 90 2 8 14 98 25 200 26 235 42 291 112 387 29 39 53 59 105 85 67 33 68
33 213 33 133 -1 161 -4 335 -43 131 -29 194 -48 203 -59 9 -12 23 -17 49 -14
29 2 35 0 30 -13 -5 -11 -1 -16 13 -16 10 0 21 4 24 8 9 15 104 -20 109 -39 3
-10 0 -20 -7 -22 -6 -2 -8 -8 -3 -12 4 -5 13 0 21 10 11 16 22 17 78 12 36 -3
119 -19 184 -36 152 -38 194 -43 231 -25 44 22 64 74 70 185 l6 95 -79 64
c-91 73 -150 102 -324 159 -252 82 -435 124 -745 171 -162 24 -223 28 -415 29
-124 1 -242 4 -262 7 -34 6 -36 5 -31 -16z"/>
<path d="M44005 223461 c-86 -23 -168 -55 -304 -115 -57 -25 -110 -46 -117
-46 -8 0 -14 -5 -14 -10 0 -18 -92 -111 -155 -155 -33 -24 -136 -87 -230 -140
-288 -165 -935 -605 -1060 -721 -11 -11 -43 -37 -70 -59 -81 -65 -235 -225
-294 -305 -347 -468 -215 -878 589 -1821 509 -598 921 -908 1209 -909 88 0
139 18 187 65 118 119 69 357 -114 543 -42 44 -122 119 -176 168 -137 123
-125 111 -305 289 -255 251 -436 463 -532 625 -51 87 -92 197 -87 237 2 17 1
31 -2 30 -3 0 -14 2 -26 6 -18 6 -22 18 -28 83 -8 99 0 144 39 229 82 180 290
377 649 618 206 138 691 428 868 519 310 160 408 256 439 433 21 120 -18 283
-87 364 -56 65 -102 84 -214 88 -70 2 -113 -2 -165 -16z"/>
<path d="M0 196680 l0 -1420 25 12 c14 6 25 14 25 17 0 3 2 637 4 1409 l3
1402 -28 0 -29 0 0 -1420z"/>
<path d="M0 190013 l0 -1071 25 -4 25 -5 2 261 c4 688 -8 1401 -27 1646 -2 25
-7 88 -10 140 -4 52 -9 97 -11 99 -2 2 -4 -477 -4 -1066z"/>
<path d="M60763 181739 c3 -13 8 -34 12 -46 l7 -22 -73 19 -72 19 -109 -105
c-60 -57 -115 -104 -123 -104 -16 0 -112 -144 -148 -221 -127 -276 -250 -893
-321 -1609 -9 -85 -18 -175 -20 -200 -3 -25 -8 -83 -11 -130 -4 -47 -8 -98
-10 -115 -2 -16 -7 -84 -10 -150 -4 -66 -8 -130 -10 -142 -22 -141 -27 -1154
-7 -1328 25 -213 33 -231 135 -289 121 -69 197 -89 310 -84 237 12 385 119
458 333 52 150 55 200 49 940 -3 381 7 527 65 968 19 144 44 354 55 466 30
296 55 402 133 559 156 316 473 423 997 337 76 -13 624 -128 719 -152 13 -3
32 -21 44 -40 18 -32 23 -35 56 -29 123 19 126 19 114 5 -7 -7 -13 -23 -13
-36 0 -27 21 -30 64 -8 27 14 36 13 122 -12 77 -22 95 -31 101 -50 8 -22 14
-24 103 -28 121 -6 240 -26 409 -71 262 -69 297 -76 371 -77 83 0 118 13 161
60 59 62 79 141 84 323 5 197 10 186 -114 288 -215 179 -297 219 -706 350
-523 167 -893 250 -1510 338 -16 2 -79 11 -140 20 -66 10 -202 18 -340 20
-612 10 -763 14 -799 20 -37 6 -39 5 -33 -17z"/>
<path d="M9670 157202 c0 -18 5 -42 10 -53 14 -25 5 -25 -88 1 -39 11 -80 20
-89 19 -12 -1 -9 -4 7 -8 24 -7 21 -12 -70 -99 -52 -51 -107 -97 -121 -104
-48 -21 -152 -202 -208 -361 -39 -112 -112 -409 -146 -592 -24 -130 -86 -550
-100 -675 -26 -239 -40 -376 -50 -510 -4 -41 -8 -88 -10 -105 -2 -16 -6 -82
-10 -145 -3 -63 -8 -128 -10 -145 -2 -16 -7 -106 -10 -200 -4 -93 -9 -186 -11
-205 -6 -60 -5 -743 1 -826 15 -204 37 -335 62 -370 14 -18 131 -85 196 -110
125 -51 275 -41 424 26 154 70 242 220 273 464 11 83 12 233 6 726 -5 382 2
475 69 1015 24 193 49 404 55 470 43 464 167 708 423 829 117 55 207 71 392
70 183 -1 290 -17 649 -94 127 -28 265 -58 306 -66 87 -19 117 -35 131 -71 7
-19 14 -24 32 -20 12 3 46 9 76 13 51 7 54 6 46 -12 -9 -22 -18 -85 -9 -67 3
7 23 17 45 23 21 6 39 15 39 19 0 5 26 1 58 -9 31 -10 76 -23 98 -29 32 -8 43
-17 48 -36 6 -23 10 -25 74 -25 122 -1 263 -25 469 -81 203 -55 274 -69 346
-69 111 1 176 49 210 155 24 77 30 129 29 280 l0 140 -48 42 c-90 79 -204 168
-265 205 -110 67 -300 139 -644 243 -513 155 -873 228 -1575 320 -96 13 -225
18 -560 19 -432 3 -528 8 -542 30 -4 6 -8 -4 -8 -22z"/>
<path d="M39664 138051 c4 -200 17 -1325 20 -1688 l1 -112 55 -32 c30 -18 75
-44 100 -59 25 -15 79 -46 120 -70 41 -24 95 -55 120 -70 25 -15 79 -46 120
-70 41 -24 95 -55 120 -70 49 -30 186 -110 295 -173 39 -22 90 -52 115 -67 25
-15 79 -46 120 -70 41 -24 95 -55 120 -70 25 -15 90 -53 145 -85 55 -32 120
-70 145 -85 25 -15 79 -46 120 -70 41 -24 95 -55 120 -70 25 -15 79 -46 120
-70 41 -24 95 -55 120 -70 25 -15 82 -49 128 -75 l83 -49 -48 -43 c-148 -132
-434 -307 -898 -548 -519 -269 -743 -402 -951 -563 -116 -90 -247 -219 -316
-312 -91 -123 -91 -124 -83 -269 3 -69 8 -142 10 -161 2 -19 6 -84 10 -145 3
-60 8 -135 10 -165 2 -30 7 -95 10 -145 3 -49 8 -117 10 -150 2 -33 7 -105 10
-160 3 -55 8 -120 10 -145 2 -25 7 -94 10 -155 3 -60 8 -128 10 -150 2 -22 6
-94 10 -160 4 -66 8 -121 9 -122 2 -2 572 -12 1156 -19 305 -4 589 -8 629 -8
l75 -1 54 95 c49 87 69 123 162 295 18 33 50 89 70 125 20 36 53 94 72 130 57
104 86 157 163 295 82 147 112 202 163 295 19 36 52 94 72 130 20 36 53 94 72
130 53 98 83 152 163 295 40 72 93 166 117 211 100 186 173 314 180 314 4 0
29 -37 56 -82 27 -46 93 -155 147 -243 54 -88 124 -203 155 -255 32 -52 108
-178 170 -280 62 -102 139 -228 170 -280 32 -52 101 -167 155 -255 54 -88 124
-203 155 -255 31 -52 101 -167 155 -255 54 -88 127 -208 162 -267 35 -60 65
-108 66 -108 1 -1 470 -3 1041 -7 l1039 -6 -7 614 c-3 338 -8 636 -10 662 -2
26 -7 98 -11 160 -7 124 -7 127 -30 282 -16 101 -28 158 -54 242 -22 73 -78
161 -146 228 -60 60 -90 80 -206 138 -74 37 -139 67 -143 67 -5 0 -34 11 -65
24 -78 34 -218 94 -266 114 -82 34 -444 221 -545 281 -239 143 -529 344 -743
514 l-88 70 103 56 c57 32 126 70 153 85 28 16 109 61 180 101 72 40 148 83
170 95 22 13 99 55 170 95 72 40 148 83 170 95 22 13 99 55 170 95 72 40 148
83 170 95 22 13 99 55 170 95 72 40 148 83 170 95 22 13 99 55 170 95 72 40
148 83 170 95 22 13 100 56 174 97 73 41 142 80 152 86 18 11 19 43 19 1047
l0 1035 -858 0 c-842 0 -858 0 -883 -20 -36 -28 -242 -182 -309 -232 -134 -98
-210 -202 -380 -518 -24 -44 -51 -93 -60 -110 -20 -37 -141 -257 -185 -340
-18 -33 -61 -114 -95 -180 -35 -66 -76 -144 -91 -172 -16 -29 -43 -79 -60
-110 -85 -157 -213 -351 -296 -451 -60 -72 -170 -182 -182 -182 -4 0 -28 37
-53 83 -49 87 -121 216 -158 282 -26 45 -103 185 -145 260 -15 28 -31 55 -35
60 -4 6 -21 35 -37 65 -30 56 -111 201 -153 275 -22 39 -82 147 -165 295 -23
41 -53 93 -65 115 -22 39 -80 142 -165 295 -23 41 -53 93 -65 115 -12 22 -45
81 -73 130 -27 50 -63 113 -79 140 -15 28 -44 80 -64 118 l-36 67 -147 1 c-80
0 -378 2 -661 5 -283 2 -674 6 -868 8 l-352 3 4 -236z"/>
<path d="M39630 129418 c0 -431 -2 -880 -4 -998 -3 -212 -3 -216 22 -265 43
-86 131 -216 190 -277 80 -84 161 -134 409 -254 392 -189 942 -476 1273 -664
146 -83 418 -258 438 -283 12 -14 -32 -44 -383 -255 -694 -418 -1362 -762
-1791 -922 -73 -28 -138 -50 -145 -50 -9 0 -11 -109 -6 -512 4 -282 9 -715 12
-963 6 -497 14 -877 20 -883 2 -2 90 43 197 101 398 215 951 514 1198 647 140
76 338 182 440 237 299 162 915 495 1190 643 275 148 891 481 1190 643 102 55
301 162 443 238 141 77 364 197 495 268 303 164 790 427 1142 616 151 81 279
151 284 156 12 10 -1602 974 -1804 1078 -326 166 -679 357 -1960 1058 -1521
833 -2247 1201 -2722 1379 -65 24 -120 44 -123 44 -3 0 -5 -352 -5 -782z"/>
<path d="M32350 129865 c-204 -34 -430 -127 -590 -245 -424 -312 -661 -876
-593 -1410 42 -328 181 -604 418 -828 111 -105 204 -171 346 -245 241 -127
476 -189 719 -189 207 0 373 38 557 128 444 217 778 725 842 1279 13 108 6
331 -13 436 -45 247 -164 483 -332 656 -187 191 -461 330 -789 399 -151 32
-430 42 -565 19z"/>
<path d="M35900 127932 c-425 -19 -783 -167 -1023 -422 -244 -259 -375 -596
-382 -985 -6 -288 48 -528 171 -765 211 -407 588 -661 1059 -716 156 -18 420
-4 595 32 667 138 1091 698 1075 1419 -5 244 -53 450 -151 654 -72 152 -147
262 -252 372 -113 119 -220 198 -367 270 -221 108 -456 154 -725 141z"/>
<path d="M32363 126009 c-680 -100 -1133 -630 -1160 -1359 -26 -691 344 -1273
933 -1465 156 -51 268 -65 494 -61 162 2 228 8 313 25 458 93 782 329 967 706
102 206 143 391 143 645 0 669 -397 1254 -983 1450 -153 51 -225 62 -440 65
-113 2 -233 -1 -267 -6z"/>
<path d="M47105 79417 c4 -375 9 -745 10 -822 2 -77 3 -228 4 -336 l1 -196 83
-48 c45 -26 102 -60 127 -75 25 -15 79 -46 120 -70 41 -24 95 -55 120 -70 25
-15 90 -53 145 -85 55 -32 120 -70 145 -85 25 -15 79 -46 120 -70 41 -24 95
-55 120 -70 25 -15 79 -46 120 -70 41 -24 95 -55 120 -70 25 -15 79 -46 120
-70 41 -24 95 -55 120 -70 25 -15 90 -53 145 -85 55 -32 120 -70 145 -85 25
-15 79 -46 120 -70 41 -24 95 -55 120 -70 25 -15 79 -46 120 -70 41 -24 93
-54 115 -68 l39 -25 -44 -40 c-161 -143 -397 -288 -875 -537 -563 -293 -796
-432 -1000 -596 -156 -125 -245 -220 -336 -354 -37 -56 -43 -72 -43 -115 0
-49 12 -250 19 -330 2 -22 7 -89 10 -150 4 -60 8 -132 10 -160 2 -27 6 -88 9
-135 3 -47 8 -125 11 -175 4 -49 8 -115 10 -145 2 -30 7 -98 10 -150 3 -52 8
-122 10 -155 2 -33 7 -105 10 -160 8 -123 13 -187 18 -191 1 -2 234 -6 517 -9
283 -4 596 -8 695 -10 279 -5 646 -8 649 -4 2 2 21 38 43 79 71 132 105 193
143 260 20 36 53 94 72 130 51 93 81 148 163 295 77 138 106 191 163 295 19
36 52 94 72 130 34 60 63 112 143 260 17 30 47 84 67 120 34 59 52 93 143 260
17 30 58 105 92 165 34 61 78 141 99 178 51 94 78 141 81 145 2 2 25 -34 53
-80 27 -46 93 -155 147 -243 54 -88 123 -203 155 -255 31 -52 101 -167 155
-255 177 -291 267 -439 325 -535 31 -52 101 -167 155 -255 107 -176 202 -333
322 -530 l78 -130 345 -5 c190 -3 658 -5 1040 -5 l695 0 -2 450 c-2 430 -11
887 -18 923 -1 9 -6 63 -9 119 -4 55 -9 112 -11 125 -2 12 -9 60 -15 105 -11
87 -48 224 -79 295 -31 73 -108 166 -179 218 -71 52 -164 97 -482 231 -486
206 -871 431 -1324 774 -65 49 -134 101 -152 115 -18 14 -34 28 -34 31 0 3 26
20 58 38 31 17 80 44 107 59 28 16 111 63 185 104 74 41 153 85 175 98 22 12
99 55 170 95 72 40 148 82 170 95 22 12 99 55 170 95 72 40 148 82 170 95 22
12 99 55 170 95 72 40 148 82 170 95 22 12 99 55 170 95 72 40 148 82 170 95
40 23 255 142 350 195 28 15 54 31 59 35 4 5 9 474 11 1044 l3 1036 -858 0
-858 0 -100 -77 c-55 -43 -145 -111 -200 -151 -106 -78 -177 -147 -230 -223
-30 -45 -149 -251 -227 -394 -21 -38 -51 -95 -68 -125 -29 -53 -54 -99 -116
-212 -27 -51 -72 -135 -182 -345 -185 -352 -354 -601 -503 -742 -32 -30 -61
-50 -66 -45 -4 5 -18 27 -30 49 -13 22 -45 81 -73 130 -27 50 -64 115 -80 145
-16 30 -33 60 -37 65 -4 6 -20 33 -35 60 -40 73 -119 214 -145 260 -22 39 -82
147 -165 295 -23 41 -53 93 -65 115 -22 39 -80 142 -165 295 -23 41 -53 93
-65 115 -22 39 -80 142 -165 295 -23 41 -53 93 -65 115 -12 22 -45 81 -73 130
-85 153 -101 181 -117 204 l-15 22 -455 4 c-250 3 -704 7 -1009 10 l-553 5 7
-683z"/>
<path d="M47067 72003 c-2 -4 -5 -455 -6 -1001 l-2 -993 37 -67 c93 -167 194
-285 305 -358 36 -24 216 -117 400 -207 184 -89 406 -202 494 -249 88 -47 210
-111 270 -143 177 -93 410 -223 509 -282 129 -79 326 -213 326 -223 0 -16
-580 -365 -935 -562 -535 -297 -910 -480 -1250 -608 l-150 -57 3 -394 c1 -217
5 -488 7 -604 3 -115 8 -466 11 -780 3 -313 8 -572 9 -573 3 -4 268 138 917
489 131 71 354 191 495 268 142 76 341 183 443 238 319 173 924 500 1193 644
141 77 365 198 497 269 132 71 356 192 497 269 142 76 425 228 628 338 204
110 431 233 505 273 74 40 302 163 505 273 204 109 458 247 565 305 107 58
230 124 274 148 l78 42 -213 127 c-118 71 -493 295 -834 499 -341 203 -694
408 -785 454 -246 126 -697 368 -1225 657 -1649 903 -1999 1091 -2545 1364
-379 189 -692 333 -875 401 -130 49 -142 52 -148 43z"/>
<path d="M39987 71695 c-1 -1 -47 -5 -102 -9 -410 -25 -802 -261 -1041 -627
-149 -228 -240 -511 -251 -784 -21 -495 186 -925 584 -1212 163 -117 426 -233
633 -278 114 -25 364 -31 476 -11 188 32 347 96 503 200 336 225 575 597 673
1047 19 89 22 135 23 314 0 224 -9 294 -60 450 -176 540 -686 875 -1383 909
-29 1 -53 2 -55 1z"/>
<path d="M43245 69738 c-119 -12 -311 -51 -410 -84 -397 -132 -699 -445 -833
-864 -52 -162 -73 -306 -73 -491 0 -645 349 -1173 904 -1368 179 -63 267 -75
522 -75 197 0 247 3 350 22 311 59 541 178 738 381 186 192 296 404 359 695
19 87 22 132 22 321 0 190 -3 234 -22 322 -46 212 -134 421 -244 580 -69 100
-223 257 -318 323 -157 109 -364 193 -554 225 -116 19 -315 25 -441 13z"/>
<path d="M39889 67829 c-628 -52 -1083 -457 -1218 -1084 -58 -266 -43 -593 40
-851 187 -585 646 -938 1249 -961 704 -26 1245 302 1449 880 60 171 75 269 75
497 0 175 -3 220 -23 310 -69 326 -209 593 -420 806 -298 301 -698 441 -1152
403z"/>
<path d="M53530 47563 c-107 -13 -374 -85 -665 -180 -372 -121 -616 -223
-1040 -433 -236 -117 -331 -170 -445 -249 -278 -192 -404 -274 -483 -317 l-80
-42 26 -25 c15 -13 27 -27 27 -30 0 -3 -24 -13 -52 -22 -64 -21 -71 -27 -74
-62 -1 -16 -15 -75 -30 -133 -71 -267 -32 -461 199 -990 89 -204 296 -618 417
-835 15 -27 40 -72 55 -100 24 -44 170 -297 202 -350 7 -11 17 -29 23 -40 6
-11 18 -32 28 -47 9 -15 53 -85 96 -155 229 -369 445 -671 571 -800 l81 -83
54 0 c185 0 319 63 418 193 67 90 84 132 90 227 4 76 1 95 -26 175 -41 121
-118 255 -269 465 -280 392 -378 552 -606 1001 -84 167 -181 354 -214 414 -71
128 -127 272 -143 368 -17 97 -8 248 18 322 29 79 101 184 171 246 133 120
301 208 688 363 311 124 325 129 350 110 26 -20 29 -18 82 31 l48 45 7 -31 c7
-37 23 -34 51 9 16 25 36 36 101 57 67 22 85 24 101 14 17 -10 30 -5 97 35 98
60 192 101 381 166 83 29 177 65 210 81 187 87 194 215 25 467 -32 49 -66 95
-74 102 -27 21 -316 44 -416 33z"/>
<path d="M17187 45512 l-29 -3 6 -347 c3 -191 8 -624 12 -962 4 -338 7 -639 8
-668 2 -58 -8 -50 186 -162 41 -24 95 -55 120 -70 25 -15 79 -46 120 -70 41
-24 95 -55 120 -70 25 -15 90 -53 145 -85 55 -32 120 -70 145 -85 25 -15 79
-46 120 -70 41 -24 95 -55 120 -70 25 -15 79 -46 120 -70 41 -24 95 -55 120
-70 25 -15 90 -53 145 -85 55 -32 120 -70 145 -85 25 -15 79 -46 120 -70 41
-24 95 -55 120 -70 25 -15 77 -45 115 -67 219 -128 262 -153 280 -167 20 -16
19 -16 -15 -47 -161 -143 -402 -292 -865 -534 -382 -200 -430 -226 -625 -340
-262 -155 -431 -281 -578 -434 -89 -93 -196 -244 -196 -276 1 -26 14 -233 19
-305 2 -30 7 -98 10 -150 3 -52 8 -120 10 -150 2 -30 7 -100 10 -155 4 -55 8
-122 10 -150 2 -27 7 -97 10 -155 3 -58 8 -125 10 -150 2 -25 7 -92 10 -150 3
-58 8 -130 10 -160 2 -30 7 -98 10 -150 4 -52 8 -96 10 -98 3 -4 293 -9 935
-17 289 -4 614 -8 722 -10 138 -2 200 1 206 9 8 10 27 43 115 206 17 30 47 84
67 120 34 60 62 111 143 260 17 30 47 84 67 120 20 36 53 94 72 130 57 104 86
157 163 295 82 147 112 202 163 295 19 36 52 94 72 130 34 60 63 112 143 260
17 30 47 84 67 120 20 36 54 97 75 135 130 238 132 241 138 235 5 -5 136 -219
257 -420 31 -52 108 -178 170 -280 62 -102 139 -228 170 -280 32 -52 101 -167
155 -255 54 -88 124 -203 155 -255 32 -52 101 -167 155 -255 54 -88 126 -207
161 -265 35 -58 87 -143 116 -189 l53 -84 310 -2 c171 -2 636 -4 1035 -6 l725
-3 0 454 c-1 414 -10 881 -19 970 -2 19 -7 76 -11 125 -4 50 -18 150 -31 223
-43 235 -112 368 -239 461 -89 65 -109 75 -405 201 -25 10 -94 40 -155 66
-199 84 -450 212 -650 332 -219 132 -630 419 -762 533 l-33 28 48 27 c26 15
61 35 77 45 33 19 47 26 240 134 72 40 148 82 170 95 22 12 99 55 170 95 72
40 148 82 170 95 22 12 99 55 170 95 72 40 148 82 170 95 22 12 99 55 170 95
72 40 148 82 170 95 22 12 99 55 170 95 72 40 148 82 170 95 22 12 101 56 175
98 74 41 158 87 185 103 l50 28 3 1038 2 1038 -857 0 -858 -1 -145 -109 c-80
-60 -167 -126 -195 -146 -148 -111 -191 -174 -482 -709 -17 -30 -44 -81 -62
-112 -17 -32 -44 -82 -60 -110 -15 -29 -54 -102 -86 -163 -184 -352 -252 -471
-343 -605 -35 -52 -88 -125 -118 -161 -57 -71 -193 -214 -198 -208 -2 2 -17
29 -33 59 -30 56 -112 203 -153 275 -22 39 -82 147 -165 295 -23 41 -53 93
-65 115 -22 39 -80 142 -165 295 -23 41 -53 93 -65 115 -22 39 -80 142 -165
295 -23 41 -53 93 -65 115 -26 45 -103 185 -145 260 -15 28 -31 55 -35 60 -4
6 -21 35 -37 65 -16 30 -53 96 -80 145 -28 50 -63 113 -78 140 -15 28 -32 55
-39 62 -8 9 -241 13 -936 19 -509 3 -950 7 -980 8 -30 1 -68 0 -83 -2z"/>
<path d="M17130 36937 c0 -271 -3 -721 -6 -1002 l-5 -510 68 -115 c51 -86 91
-138 158 -206 107 -108 141 -128 505 -302 307 -148 1032 -531 1260 -668 192
-114 365 -234 353 -244 -37 -33 -637 -390 -918 -547 -520 -290 -902 -476
-1259 -614 l-151 -58 0 -383 c0 -389 15 -1863 20 -1908 1 -14 3 -35 4 -48 1
-21 3 -21 24 -8 20 13 198 109 1030 557 141 77 365 198 497 269 132 71 356
192 497 269 269 144 874 471 1193 644 102 55 301 162 443 238 141 77 365 198
497 269 132 71 356 192 497 269 142 76 341 183 443 238 440 238 954 516 1195
645 143 77 264 143 268 147 12 12 -1640 994 -1878 1116 -272 140 -712 377
-1420 765 -1997 1095 -2748 1479 -3232 1650 l-83 29 0 -492z"/>
<path d="M9830 37090 c-437 -78 -794 -348 -1004 -760 -122 -237 -179 -487
-171 -750 16 -565 342 -1032 884 -1270 565 -247 1119 -153 1531 261 124 125
214 251 300 424 135 271 194 530 184 815 -16 506 -275 910 -719 1125 -116 56
-279 109 -430 141 -166 35 -422 41 -575 14z"/>
<path d="M13229 35145 c-372 -53 -645 -184 -858 -412 -231 -246 -363 -577
-378 -944 -29 -708 365 -1295 988 -1469 292 -81 697 -71 996 26 668 217 1034
907 886 1669 -84 437 -364 821 -731 1004 -76 38 -239 93 -342 116 -104 23
-432 29 -561 10z"/>
<path d="M9929 33246 c-2 -2 -31 -7 -64 -10 -498 -55 -918 -405 -1084 -903
-53 -156 -72 -272 -78 -463 -8 -262 25 -459 116 -685 192 -477 623 -795 1126
-832 258 -19 487 7 712 82 486 162 812 559 883 1076 15 107 15 320 1 425 -73
527 -392 986 -825 1183 -199 92 -339 122 -592 127 -104 3 -192 3 -195 0z"/>
</g>
</svg>
