<svg width="692" height="308" viewBox="0 0 692 308" fill="none" xmlns="http://www.w3.org/2000/svg">
<path d="M584.379 419.426C557.961 293.671 324.91 170.083 197.535 195.792C107.271 214.067 -1.86291 388.762 0.0241362 479.207C2.8547 601.555 188.414 781.825 312.33 779.657C450.399 777.489 610.169 543.014 584.379 419.426Z" fill="#FCFBF9"/>
<path d="M556.798 203.383C537.179 231.173 576.04 282.247 594.15 289.007C621.693 299.147 667.722 255.208 659.044 223.662C650.367 190.99 573.022 180.475 556.798 203.383Z" fill="#FCFBF9"/>
<path d="M239.89 14.4022C216.236 46.1918 261.079 103.028 282.269 110.253C314.3 121.331 369.492 70.7565 359.637 35.1136C349.781 -1.011 259.108 -11.6076 239.89 14.4022Z" fill="#FCFBF9"/>
</svg>
