<svg width="251" height="206" viewBox="0 0 251 206" fill="none" xmlns="http://www.w3.org/2000/svg">
<path d="M89.1478 92.7269C109.569 79.3442 79.1565 7.49401 94.0158 1.28582C108.875 -4.92236 107.968 59.1721 113.436 59.9704C122.076 61.2318 128.449 -24.4047 144.854 -22.0097C161.259 -19.6148 129.577 65.7336 139.986 69.4313C153.261 74.1617 167.482 -4.74408 183.095 3.12016C192.954 8.10597 145.57 79.0707 164.952 89.8308C178.729 97.4549 188.832 41.9634 207.23 48.5307C220.505 53.2611 150.691 185.011 120.221 186.622C106.153 187.361 84.1961 183.011 74.9273 171.633C62.0102 155.757 70.406 130.175 58.6371 110.613C38.3861 76.9389 22.0192 55.0023 31.4101 47.9958C47.0615 36.3183 73.906 102.733 89.1478 92.7269ZM110.245 93.5727C110.24 95.7223 111.995 97.4864 114.144 97.4929C123.49 97.5448 132.71 101.739 138.83 108.832C143.391 114.161 145.474 120.218 144.642 125.96C143.541 133.563 137.642 140.94 129.954 144.285C126.231 145.892 118.945 147.816 111.641 142.729C101.902 135.945 100.273 125.99 102.943 119.119C104.616 114.895 108.5 110.631 114.374 111.517C119.241 112.227 122.635 114.817 123.028 118.086C123.443 121.386 120.717 124.59 115.72 126.709C113.726 127.563 112.783 129.827 113.639 131.823C114.495 133.818 116.759 134.763 118.753 133.91C128.678 129.773 131.489 122.505 130.789 117.125C129.912 110.267 123.913 105.035 115.491 103.805C106.906 102.552 99.1602 107.453 95.6499 116.267C92.7363 123.661 93.2406 133.48 99.46 141.816C101.424 144.448 103.967 146.942 107.135 149.164C114.743 154.463 124.174 155.281 133.019 151.462C143.116 147.1 150.871 137.314 152.321 127.109C153.486 119.07 150.775 110.799 144.701 103.769C137.146 95.0147 125.709 89.7427 114.151 89.7309C112.01 89.6697 110.28 91.3998 110.245 93.5727Z" fill="#FCFBF9"/>
</svg>
