<svg width="69" height="60" viewBox="0 0 69 60" fill="none" xmlns="http://www.w3.org/2000/svg">
<g style="mix-blend-mode:overlay">
<path fill-rule="evenodd" clip-rule="evenodd" d="M35.9862 4.36475C41.1849 6.06655 44.6235 10.3963 49.4601 12.9328C55.5175 16.1096 64.5646 15.0587 67.7788 21.0379C70.9513 26.9396 67.2978 34.3436 64.1488 40.2575C61.3633 45.4889 56.1717 48.5874 51.288 52.0085C46.4662 55.3863 41.8915 60.2961 35.9862 59.986C30.1378 59.6789 27.0078 53.1496 21.8238 50.4611C15.2383 47.0458 5.58868 48.4835 1.71868 42.2145C-2.14817 35.9506 1.42463 27.8591 3.52848 20.8248C5.69068 13.5953 7.15777 4.75532 13.9527 1.30948C20.7144 -2.11956 28.7702 2.00262 35.9862 4.36475Z" fill="#3F09D8" fill-opacity="0.83"/>
</g>
</svg>
