<?xml version="1.0" encoding="iso-8859-1"?>
<!-- Generator: Adobe Illustrator 19.0.0, SVG Export Plug-In . SVG Version: 6.00 Build 0)  -->
<svg version="1.1" id="Layer_1" xmlns="http://www.w3.org/2000/svg" xmlns:xlink="http://www.w3.org/1999/xlink" x="0px" y="0px"
	 viewBox="0 0 496 496" style="enable-background:new 0 0 496 496;" xml:space="preserve">
<g>
	<g>
		<g>
			<path d="M192,40c-83.816,0-152,68.184-152,152s68.184,152,152,152s152-68.184,152-152S275.816,40,192,40z M192,328
				c-74.992,0-136-61.008-136-136S117.008,56,192,56s136,61.008,136,136S266.992,328,192,328z"/>
			<path d="M482.056,414.744L387.312,320l18.344-18.344l-11.312-11.312L376,308.688l-18.872-18.872
				C374.168,261.144,384,227.704,384,192C384,86.136,297.864,0,192,0S0,86.136,0,192s86.136,192,192,192
				c35.704,0,69.144-9.832,97.816-26.872L308.688,376l-18.344,18.344l11.312,11.312L320,387.312l94.744,94.744
				C423.736,491.048,435.688,496,448.4,496c26.248,0,47.6-21.352,47.6-47.6C496,435.688,491.048,423.736,482.056,414.744z M192,368
				c-97.048,0-176-78.952-176-176S94.952,16,192,16s176,78.952,176,176S289.048,368,192,368z M303.48,348.168
				c17.24-12.344,32.344-27.448,44.688-44.688l16.52,16.52L320,364.688L303.48,348.168z M448.4,480
				c-8.44,0-16.376-3.288-22.344-9.256L331.312,376L376,331.312l94.744,94.744C476.712,432.024,480,439.96,480,448.4
				C480,465.824,465.824,480,448.4,480z"/>
			<path d="M280,128c-17.648,0-32,14.352-32,32s14.352,32,32,32s32-14.352,32-32S297.648,128,280,128z M280,176
				c-8.824,0-16-7.176-16-16c0-8.824,7.176-16,16-16c8.824,0,16,7.176,16,16C296,168.824,288.824,176,280,176z"/>
			<path d="M265.344,203.56l-11.904,17.856c-4.432-3.352-9.888-5.416-15.864-5.416c-1.896,0-3.752,0.272-5.576,0.664V200h-16v24.6
				c-5.04,2.752-10.424,4.704-16,5.848V208h-16v23.528c-7.448-0.496-14.792-2.288-21.56-5.56l5.144-15.432l-15.168-5.064
				l-4.168,12.496c-3.112-1.256-6.424-1.968-9.824-1.968c-3.584,0-7,0.728-10.12,2.032l-9.648-14.472l-13.312,8.872l10.712,16.072
				c-2.528,4.056-4.056,8.8-4.056,13.92c0,3.992,0.792,7.896,2.208,11.528L92.424,264.84l7.16,14.312l24.12-12.056
				c1.208,1,2.472,1.928,3.832,2.744l4.352,2.608c0.528,0.32,1.08,0.584,1.608,0.896l-12.144,18.216l13.312,8.872l13.392-20.08
				c5.928,2.336,12.024,4.192,18.264,5.456l-6.064,24.248l15.512,3.872l6.536-26.128c1.888,0.104,3.784,0.2,5.696,0.2
				c1.336,0,2.664-0.088,4-0.136V312h16v-25.896c3.592-0.672,7.144-1.512,10.648-2.536l5.592,22.376l15.512-3.872l-6.04-24.168
				c3.552-1.64,7.04-3.416,10.408-5.44l4.352-2.608c0.424-0.256,0.8-0.568,1.216-0.84l16.656,16.656l11.312-11.312l-17.288-17.288
				c2.312-4.496,3.632-9.488,3.632-14.648c0-2.288-0.384-4.48-0.936-6.6l15.592-23.384L265.344,203.56z M240.24,256.128
				l-4.352,2.608c-28.92,17.36-66.856,17.36-95.784,0l-4.352-2.608C130.976,253.248,128,248,128,242.424
				c0-5.752,4.672-10.424,10.424-10.424c2.064,0,4.064,0.6,5.784,1.752l2.72,1.816c24.408,16.264,57.752,16.264,82.16,0l2.72-1.816
				c1.704-1.152,3.704-1.752,5.768-1.752c5.752,0,10.424,4.672,10.424,10.424C248,248,245.024,253.256,240.24,256.128z"/>
			<path d="M136,152c17.648,0,32-14.352,32-32c0-5.92-1.72-11.392-4.536-16.152l13.504-13.504c1.496-1.496,3.552-2.344,5.656-2.344
				H200c4.416,0,8,3.584,8,8v16c0,4.416-3.584,8-8,8c-13.232,0-24,10.768-24,24v16c0,13.232,10.768,24,24,24h32v-16h-32
				c-4.416,0-8-3.584-8-8v-16c0-4.416,3.584-8,8-8c13.232,0,24-10.768,24-24V96c0-13.232-10.768-24-24-24h-17.376
				c-6.408,0-12.44,2.504-16.968,7.032l-13.504,13.504C147.392,89.72,141.92,88,136,88c-17.648,0-32,14.352-32,32
				S118.352,152,136,152z M136,104c8.824,0,16,7.176,16,16s-7.176,16-16,16c-8.824,0-16-7.176-16-16
				C120,111.176,127.176,104,136,104z"/>
			<rect x="72" y="168" width="24" height="16"/>
			<rect x="136" y="168" width="24" height="16"/>
		</g>
	</g>
</g>
<g>
</g>
<g>
</g>
<g>
</g>
<g>
</g>
<g>
</g>
<g>
</g>
<g>
</g>
<g>
</g>
<g>
</g>
<g>
</g>
<g>
</g>
<g>
</g>
<g>
</g>
<g>
</g>
<g>
</g>
</svg>
