<?xml version="1.0" encoding="iso-8859-1"?>
<!-- Generator: Adobe Illustrator 19.0.0, SVG Export Plug-In . SVG Version: 6.00 Build 0)  -->
<svg version="1.1" id="Layer_1" xmlns="http://www.w3.org/2000/svg" xmlns:xlink="http://www.w3.org/1999/xlink" x="0px" y="0px"
	 viewBox="0 0 459.99 459.99" style="enable-background:new 0 0 459.99 459.99;" xml:space="preserve">
<g id="XMLID_1091_">
	<path id="XMLID_1092_" style="fill:#FE843F;" d="M195.821,457.45l261.63-261.63c0.057,0.381,0.123,0.785,0.182,1.172
		C441.623,85.608,345.816,0,230,0C102.975,0,0,102.975,0,230c0,115.672,85.395,211.387,196.578,227.574
		C196.328,457.536,196.069,457.487,195.821,457.45z"/>
	<path id="XMLID_1093_" style="fill:#FC5A37;" d="M99.186,360.815l96.635,96.635c69.662,10.412,143.185-11.186,196.814-64.815
		s75.227-127.152,64.815-196.814l-96.635-96.635L99.186,360.815z"/>
	<path id="XMLID_1094_" style="fill:#7BE3FF;" d="M230,45c102.17,0,185,82.83,185,185s-82.83,185-185,185v-20
		c90.98,0,165-74.02,165-165S320.98,65,230,65V45z"/>
	<path id="XMLID_1095_" style="fill:#ADEEFF;" d="M230,415c-102.17,0-185-82.83-185-185S127.83,45,230,45l10,185L230,415z"/>
	<path id="XMLID_1096_" style="fill:#FFFFFF;" d="M230,65l10,165l-10,165c-90.98,0-165-74.02-165-165S139.02,65,230,65z"/>
	<path id="XMLID_1097_" style="fill:#FFF2D4;" d="M230,65c90.98,0,165,74.02,165,165s-74.02,165-165,165V65z"/>
	<path id="XMLID_1098_" style="fill:#FFC85F;" d="M330,230c0-55.14-44.859-100-100-100v20c25.969,0,49.077,12.445,63.701,31.675
		L225,221.34l-68.737,39.685C152.232,251.48,150,240.996,150,230h-20c0,33.362,16.426,62.957,41.611,81.133l-15.271,26.45l17.32,10
		l15.253-26.418C201.454,326.839,215.365,330,230,330v-20c-25.969,0-49.077-12.445-63.701-31.675L235,238.66l68.737-39.685
		C307.768,208.52,310,219.004,310,230H330z"/>
	<path id="XMLID_1099_" style="fill:#FE843F;" d="M170,230c0,33.137,26.863,60,60,60l10-60l-10-60C196.863,170,170,196.863,170,230z
		"/>
	<path id="XMLID_1100_" style="fill:#FC5A37;" d="M230,170v120c33.137,0,60-26.863,60-60S263.137,170,230,170z"/>
	<circle id="XMLID_1101_" style="fill:#DB3916;" cx="230" cy="230" r="30"/>
	<path id="XMLID_1102_" style="fill:#FFAE46;" d="M230,370c-77.196,0-140-62.804-140-140S152.804,90,230,90v20
		c-66.168,0-120,53.832-120,120s53.832,120,120,120V370z"/>
	<circle id="XMLID_1103_" style="fill:#FE843F;" cx="311.318" cy="311.317" r="25"/>
</g>
<g>
</g>
<g>
</g>
<g>
</g>
<g>
</g>
<g>
</g>
<g>
</g>
<g>
</g>
<g>
</g>
<g>
</g>
<g>
</g>
<g>
</g>
<g>
</g>
<g>
</g>
<g>
</g>
<g>
</g>
</svg>
