<?xml version="1.0" encoding="iso-8859-1"?>
<!-- Generator: Adobe Illustrator 19.0.0, SVG Export Plug-In . SVG Version: 6.00 Build 0)  -->
<svg version="1.1" id="Layer_1" xmlns="http://www.w3.org/2000/svg" xmlns:xlink="http://www.w3.org/1999/xlink" x="0px" y="0px"
	 viewBox="0 0 512 512" style="enable-background:new 0 0 512 512;" xml:space="preserve">
<polygon style="fill:#DD955F;" points="339.64,284.434 339.64,181.861 256,118.107 172.359,181.861 172.359,284.434 46.801,322.686 
	46.801,512 212.848,512 256,478.426 299.152,512 465.199,512 465.199,322.686 "/>
<path style="fill:#492D25;" d="M299.152,391.341c0-23.832-19.319-43.152-43.152-43.152s-43.152,19.319-43.152,43.152v14.31
	L256,428.034l43.152-22.383V391.341z"/>
<rect x="212.847" y="405.65" style="fill:#9E5439;" width="86.307" height="106.351"/>
<path style="fill:#FFECD9;" d="M256,274.509c-4.635,0-8.393-3.758-8.393-8.393V200.18c0-4.635,3.758-8.393,8.393-8.393
	c4.637,0,8.393,3.758,8.393,8.393v65.936C264.393,270.751,260.637,274.509,256,274.509z"/>
<path style="fill:#9E5439;" d="M281.502,33.789h-17.108V8.393C264.393,3.758,260.637,0,256,0c-4.635,0-8.393,3.758-8.393,8.393
	v25.395h-17.108c-4.635,0-8.393,3.758-8.393,8.393s3.758,8.393,8.393,8.393h17.108v73.929h16.787V50.576h17.108
	c4.637,0,8.393-3.758,8.393-8.393S286.138,33.789,281.502,33.789z"/>
<g>
</g>
<g>
</g>
<g>
</g>
<g>
</g>
<g>
</g>
<g>
</g>
<g>
</g>
<g>
</g>
<g>
</g>
<g>
</g>
<g>
</g>
<g>
</g>
<g>
</g>
<g>
</g>
<g>
</g>
</svg>
