<?xml version="1.0" encoding="iso-8859-1"?>
<!-- Generator: Adobe Illustrator 19.0.0, SVG Export Plug-In . SVG Version: 6.00 Build 0)  -->
<svg version="1.1" id="Layer_1" xmlns="http://www.w3.org/2000/svg" xmlns:xlink="http://www.w3.org/1999/xlink" x="0px" y="0px"
	 viewBox="0 0 512.001 512.001" style="enable-background:new 0 0 512.001 512.001;" xml:space="preserve">
<rect x="72.15" y="10.199" style="fill:#E8E8E8;" width="238.998" height="440.453"/>
<g>
	<rect x="112.436" y="49.119" style="fill:#F07057;" width="56.774" height="56.774"/>
	<rect x="214.082" y="49.119" style="fill:#F07057;" width="56.774" height="56.774"/>
	<rect x="112.436" y="149.847" style="fill:#F07057;" width="56.774" height="56.774"/>
	<rect x="214.082" y="149.847" style="fill:#F07057;" width="56.774" height="56.774"/>
	<rect x="112.436" y="250.574" style="fill:#F07057;" width="56.774" height="56.774"/>
	<rect x="214.082" y="250.574" style="fill:#F07057;" width="56.774" height="56.774"/>
</g>
<rect x="144.952" y="355.881" style="fill:#84B3D2;" width="93.404" height="94.771"/>
<path style="fill:#F07057;" d="M343.508,326.905c-14.582,11.644-39.515,19.463-68.026,19.938
	c-2.861,8.479-4.436,17.549-4.436,26.992c0,79.039,84.402,127.965,84.402,127.965s84.402-48.927,84.402-127.965
	c0-9.441-1.574-18.51-4.433-26.985c-28.752-0.386-53.92-8.238-68.591-19.967C360.042,321.457,350.297,321.483,343.508,326.905z"/>
<path d="M169.214,38.917h-56.774c-5.633,0-10.199,4.567-10.199,10.199v56.774c0,5.632,4.566,10.199,10.199,10.199h56.774
	c5.633,0,10.199-4.567,10.199-10.199V49.116C179.414,43.484,174.847,38.917,169.214,38.917z M159.015,95.691H122.64V59.316h36.375
	V95.691z"/>
<path d="M214.084,116.089h56.774c5.633,0,10.199-4.567,10.199-10.199V49.116c0-5.632-4.566-10.199-10.199-10.199h-56.774
	c-5.633,0-10.199,4.567-10.199,10.199v56.774C203.885,111.523,208.451,116.089,214.084,116.089z M224.283,59.316h36.375v36.375
	h-36.375L224.283,59.316L224.283,59.316z"/>
<path d="M169.214,139.645h-56.774c-5.633,0-10.199,4.567-10.199,10.199v56.773c0,5.632,4.566,10.199,10.199,10.199h56.774
	c5.633,0,10.199-4.567,10.199-10.199v-56.773C179.414,144.213,174.847,139.645,169.214,139.645z M159.015,196.418H122.64v-36.374
	h36.375V196.418z"/>
<path d="M214.084,216.817h56.774c5.633,0,10.199-4.567,10.199-10.199v-56.773c0-5.632-4.566-10.199-10.199-10.199h-56.774
	c-5.633,0-10.199,4.567-10.199,10.199v56.773C203.885,212.25,208.451,216.817,214.084,216.817z M224.283,160.044h36.375v36.374
	h-36.375L224.283,160.044L224.283,160.044z"/>
<path d="M169.214,240.373h-56.774c-5.633,0-10.199,4.567-10.199,10.199v56.774c0,5.632,4.566,10.199,10.199,10.199h56.774
	c5.633,0,10.199-4.567,10.199-10.199v-56.774C179.414,244.939,174.847,240.373,169.214,240.373z M159.015,297.147H122.64v-36.375
	h36.375V297.147z"/>
<path d="M281.057,307.346v-56.774c0-5.632-4.566-10.199-10.199-10.199h-56.774c-5.633,0-10.199,4.567-10.199,10.199v56.774
	c0,5.632,4.566,10.199,10.199,10.199h56.774C276.491,317.545,281.057,312.978,281.057,307.346z M260.658,297.147h-36.375v-36.375
	h36.375L260.658,297.147L260.658,297.147z"/>
<path d="M191.649,374.981c-5.633,0-10.199,4.567-10.199,10.199v0.915c0,5.632,4.566,10.199,10.199,10.199
	c5.633,0,10.199-4.567,10.199-10.199v-0.915C201.848,379.548,197.282,374.981,191.649,374.981z"/>
<path d="M293.963,460.853c3.678,4.623,7.641,9.177,11.907,13.647c21.854,22.901,43.552,35.596,44.464,36.126
	c1.582,0.917,3.348,1.376,5.115,1.376c1.767,0,3.533-0.458,5.115-1.376c0.913-0.529,22.611-13.224,44.464-36.126
	c29.453-30.865,45.022-65.674,45.022-100.663c0-10.298-1.672-20.474-4.968-30.245c-1.383-4.1-5.202-6.88-9.527-6.939
	c-25.586-0.343-48.898-6.973-62.358-17.735c-10.433-8.341-25.596-8.334-36.055,0.019v-0.001c-4.323,3.452-9.682,6.473-15.796,9.006
	V10.199C321.347,4.567,316.781,0,311.148,0H72.15C66.517,0,61.95,4.567,61.95,10.199v440.455c0,5.632,4.566,10.199,10.199,10.199
	H293.963z M201.848,440.455v-26.887c0-5.632-4.566-10.199-10.199-10.199c-5.633,0-10.199,4.567-10.199,10.199v26.886h-26.303
	v-74.378h73.004v74.378h-26.303V440.455z M248.549,440.455v-84.577c0-5.632-4.566-10.199-10.199-10.199h-93.402
	c-5.633,0-10.199,4.567-10.199,10.199v84.577H82.349V20.398h218.601v313.569c-8.051,1.594-16.698,2.528-25.637,2.677
	c-4.313,0.072-8.114,2.85-9.494,6.938c-3.298,9.775-4.971,19.953-4.971,30.253c0,22.622,6.516,45.165,19.076,66.618L248.549,440.455
	L248.549,440.455z M355.439,489.707c-17.566-11.761-74.193-54.454-74.193-115.87c0-5.769,0.669-11.49,1.995-17.084
	c27.077-1.621,51.06-9.442,66.631-21.876c0,0,0,0,0.001-0.001c3.078-2.456,7.53-2.468,10.587-0.024
	c15.444,12.347,40.162,20.344,67.204,21.926c1.322,5.585,1.989,11.298,1.989,17.06C429.652,435.081,372.979,477.918,355.439,489.707
	z"/>
<g>
</g>
<g>
</g>
<g>
</g>
<g>
</g>
<g>
</g>
<g>
</g>
<g>
</g>
<g>
</g>
<g>
</g>
<g>
</g>
<g>
</g>
<g>
</g>
<g>
</g>
<g>
</g>
<g>
</g>
</svg>
