<?xml version="1.0" ?><svg width="24px" height="24px" viewBox="0 0 24 24" xmlns="http://www.w3.org/2000/svg"><defs><style>.cls-1,.cls-6{fill:#9293a5;}.cls-2{fill:#6f7188;}.cls-3,.cls-4{fill:#eae2f9;}.cls-4,.cls-5,.cls-6,.cls-7,.cls-8{fill-rule:evenodd;}.cls-5{fill:#c0c3ee;}.cls-7{fill:#f94060;}.cls-8{fill:#d62657;}</style></defs><g id="Calculator"><path class="cls-1" d="M5.39,2H18.61a.89.89,0,0,1,.89.89V21.11a.89.89,0,0,1-.89.89H5.39a.89.89,0,0,1-.89-.89V2.89A.89.89,0,0,1,5.39,2"/><path class="cls-2" d="M15.15,2V22h3.46a.89.89,0,0,0,.89-.89V2.89A.89.89,0,0,0,18.61,2Z"/><rect class="cls-3" height="9.34" rx="0.61" width="11.44" x="6.28" y="10.83"/><path class="cls-4" d="M17.72,4.61A.61.61,0,0,0,17.11,4H6.89a.61.61,0,0,0-.61.61V8.1a.6.6,0,0,0,.18.43.62.62,0,0,0,.43.18H17.11a.62.62,0,0,0,.43-.18.6.6,0,0,0,.18-.43Z"/><path class="cls-5" d="M17.72,4.61A.61.61,0,0,0,17.11,4h-2V8.71h2a.62.62,0,0,0,.43-.18.6.6,0,0,0,.18-.43Z"/><path class="cls-5" d="M12.76,16.52h1.89v-2H12.76Zm-3,0h2v-2h-2Zm5.93-1.36h2.07v1H15.65v4h-1V17.52H12.76v2.65h-1V17.52h-2v2.65h-1V17.52H6.28v-1H8.72v-2H6.28v-1H8.72V10.83h1v2.65h2V10.83h1v2.65h1.89V10.83h1Z"/><path class="cls-6" d="M14.38,7.77h1.41a.5.5,0,0,0,.5-.5.51.51,0,0,0-.5-.5H14.38a.5.5,0,0,0-.5.5A.5.5,0,0,0,14.38,7.77Z"/><path class="cls-7" d="M17.72,11.44a.61.61,0,0,0-.61-.61h-2v9.34h2a.61.61,0,0,0,.61-.61Z"/><polygon class="cls-8" points="15.65 15.16 17.72 15.16 17.72 16.16 15.65 16.16 15.65 20.17 15.15 20.17 15.15 10.83 15.65 10.83 15.65 15.16"/></g></svg>