<?xml version="1.0" encoding="iso-8859-1"?>
<!-- Generator: Adobe Illustrator 19.0.0, SVG Export Plug-In . SVG Version: 6.00 Build 0)  -->
<svg version="1.1" id="Layer_1" xmlns="http://www.w3.org/2000/svg" xmlns:xlink="http://www.w3.org/1999/xlink" x="0px" y="0px"
	 viewBox="0 0 297 297" style="enable-background:new 0 0 297 297;" xml:space="preserve">
<g>
	<path style="fill:#BDC3C7;" d="M276.851,4.395C275.321,1.68,272.447,0,269.331,0h-64.862c-3.018,0-5.817,1.577-7.381,4.158
		l-73.231,120.831c-1.615,2.664-1.668,5.993-0.139,8.709c1.53,2.715,4.404,4.395,7.52,4.395H196.1c3.018,0,5.817-1.577,7.381-4.158
		l73.231-120.831C278.327,10.439,278.38,7.111,276.851,4.395z"/>
	<path style="fill:#BDC3C7;" d="M276.851,4.395C275.321,1.68,272.447,0,269.331,0h-64.862c-3.018,0-5.817,1.577-7.381,4.158
		l-49.941,82.403v51.531H196.1c3.018,0,5.817-1.577,7.381-4.158l73.231-120.831C278.327,10.439,278.38,7.111,276.851,4.395z"/>
	<path style="fill:#5D7486;" d="M173.143,124.988L99.912,4.158C98.348,1.577,95.549,0,92.531,0H27.669
		c-3.117,0-5.99,1.68-7.52,4.395c-1.529,2.716-1.476,6.045,0.139,8.709l73.231,120.831c1.565,2.581,4.363,4.158,7.381,4.158h64.862
		c3.117,0,5.99-1.68,7.52-4.395C174.811,130.982,174.758,127.653,173.143,124.988z"/>
	<path style="fill:#FFCF6D;" d="M148.5,155.862c-38.912,0-70.569,31.657-70.569,70.569S109.588,297,148.5,297
		s70.569-31.657,70.569-70.569S187.412,155.862,148.5,155.862z"/>
	<path style="fill:#EAB353;" d="M148.5,155.862c-0.454,0-0.902,0.026-1.354,0.034v141.07c0.452,0.009,0.9,0.034,1.354,0.034
		c38.912,0,70.569-31.657,70.569-70.569S187.412,155.862,148.5,155.862z"/>
	<path style="fill:#E67E22;" d="M148.5,196.477c-16.517,0-29.954,13.437-29.954,29.954s13.437,29.954,29.954,29.954
		s29.954-13.437,29.954-29.954S165.017,196.477,148.5,196.477z"/>
	<path style="fill:#D36C1E;" d="M148.5,196.477c-0.454,0-0.904,0.014-1.354,0.034v59.839c0.449,0.02,0.9,0.034,1.354,0.034
		c16.517,0,29.954-13.437,29.954-29.954S165.017,196.477,148.5,196.477z"/>
	<path style="fill:#34495E;" d="M173.143,124.988l-25.996-42.894v55.998h18.615c3.117,0,5.99-1.68,7.52-4.395
		C174.811,130.982,174.758,127.653,173.143,124.988z"/>
	<path style="fill:#E67E22;" d="M217.546,120.831H79.454c-4.767,0-8.631,3.864-8.631,8.631v34.523c0,4.767,3.864,8.631,8.631,8.631
		h138.092c4.767,0,8.631-3.864,8.631-8.631v-34.523C226.177,124.695,222.313,120.831,217.546,120.831z"/>
	<path style="fill:#D36C1E;" d="M217.546,120.831h-70.4v51.785h70.4c4.767,0,8.631-3.864,8.631-8.631v-34.523
		C226.177,124.695,222.313,120.831,217.546,120.831z"/>
</g>
<g>
</g>
<g>
</g>
<g>
</g>
<g>
</g>
<g>
</g>
<g>
</g>
<g>
</g>
<g>
</g>
<g>
</g>
<g>
</g>
<g>
</g>
<g>
</g>
<g>
</g>
<g>
</g>
<g>
</g>
</svg>
