<?xml version="1.0" encoding="iso-8859-1"?>
<!-- Generator: Adobe Illustrator 19.0.0, SVG Export Plug-In . SVG Version: 6.00 Build 0)  -->
<svg version="1.1" id="Layer_1" xmlns="http://www.w3.org/2000/svg" xmlns:xlink="http://www.w3.org/1999/xlink" x="0px" y="0px"
	 viewBox="0 0 512 512" style="enable-background:new 0 0 512 512;" xml:space="preserve">
<path style="fill:#E5E5E5;" d="M256,0C114.616,0,0,114.616,0,256s114.616,256,256,256s256-114.616,256-256S397.384,0,256,0z"/>
<polygon points="446.512,335.656 65.488,335.656 65.488,348.256 84.536,365.848 427.464,365.848 446.512,348.256 "/>
<path style="fill:#FFFFFF;" d="M101.208,335.656V129.072c0-4.944,4.016-8.984,8.928-8.984h291.72c4.912,0,8.936,4.04,8.936,8.984
	v206.584"/>
<path d="M416.744,335.656H404.84V129.072c0-1.64-1.36-3.032-2.976-3.032H110.136c-1.616,0-2.976,1.392-2.976,3.032v206.584H95.256
	V129.072c0-8.248,6.672-14.944,14.88-14.944h291.72c8.208,0,14.88,6.696,14.88,14.944L416.744,335.656L416.744,335.656z"/>
<polygon points="349.12,253.768 341.12,253.768 341.12,235.968 170.888,235.968 170.888,253.768 162.888,253.768 162.888,227.968 
	349.12,227.968 "/>
<rect x="252" y="206.672" width="8" height="25.328"/>
<g>
	<path style="fill:#F00000;" d="M271.512,194.568c-2.872,1.6-7.768,3.208-13.176,3.208c-8.28,0-15.872-3.376-20.6-9.624
		c-2.28-2.872-3.968-6.504-4.728-10.976h-5.488v-6h4.64c0-0.424,0-0.928,0-1.44c0-0.84,0.088-1.688,0.088-2.528h-4.728v-5.992h5.656
		c1.096-4.56,3.128-8.44,5.824-11.568c4.816-5.408,11.568-8.608,19.504-8.608c5.152,0,9.624,1.184,12.664,2.528l-2.368,9.624
		c-2.192-0.928-5.656-2.032-9.376-2.032c-4.048,0-7.768,1.352-10.384,4.56c-1.184,1.352-2.112,3.296-2.704,5.488h21.032v5.992
		h-22.296c-0.08,0.848-0.08,1.776-0.08,2.616c0,0.504,0,0.84,0,1.352h22.376v6h-21.192c0.592,2.528,1.52,4.472,2.784,5.912
		c2.696,3.04,6.672,4.304,10.896,4.304c3.88,0,7.848-1.264,9.624-2.192L271.512,194.568z"/>
	<path style="fill:#F00000;" d="M182.184,318.76c-2.872,1.6-7.768,3.208-13.176,3.208c-8.28,0-15.872-3.376-20.6-9.624
		c-2.28-2.872-3.968-6.504-4.728-10.976h-5.488v-6h4.64c0-0.424,0-0.928,0-1.44c0-0.84,0.088-1.688,0.088-2.528h-4.728v-5.992h5.656
		c1.096-4.56,3.128-8.44,5.824-11.568c4.816-5.408,11.568-8.608,19.504-8.608c5.152,0,9.624,1.184,12.664,2.528l-2.368,9.624
		c-2.192-0.928-5.656-2.032-9.376-2.032c-4.048,0-7.768,1.352-10.384,4.56c-1.184,1.352-2.112,3.296-2.704,5.488h21.032v5.992
		h-22.296c-0.08,0.848-0.08,1.776-0.08,2.616c0,0.504,0,0.84,0,1.352h22.376v6h-21.192c0.592,2.528,1.52,4.472,2.784,5.912
		c2.696,3.04,6.672,4.304,10.896,4.304c3.88,0,7.848-1.264,9.624-2.192L182.184,318.76z"/>
	<path style="fill:#F00000;" d="M360.184,318.76c-2.872,1.6-7.768,3.208-13.176,3.208c-8.28,0-15.872-3.376-20.6-9.624
		c-2.28-2.872-3.968-6.504-4.728-10.976h-5.488v-6h4.64c0-0.424,0-0.928,0-1.44c0-0.84,0.088-1.688,0.088-2.528h-4.728v-5.992h5.656
		c1.096-4.56,3.128-8.44,5.824-11.568c4.816-5.408,11.568-8.608,19.504-8.608c5.152,0,9.624,1.184,12.664,2.528l-2.368,9.624
		c-2.192-0.928-5.656-2.032-9.376-2.032c-4.048,0-7.768,1.352-10.384,4.56c-1.184,1.352-2.112,3.296-2.704,5.488h21.032v5.992
		h-22.296c-0.08,0.848-0.08,1.776-0.08,2.616c0,0.504,0,0.84,0,1.352h22.376v6h-21.192c0.592,2.528,1.52,4.472,2.784,5.912
		c2.696,3.04,6.672,4.304,10.896,4.304c3.88,0,7.848-1.264,9.624-2.192L360.184,318.76z"/>
</g>
<g>
</g>
<g>
</g>
<g>
</g>
<g>
</g>
<g>
</g>
<g>
</g>
<g>
</g>
<g>
</g>
<g>
</g>
<g>
</g>
<g>
</g>
<g>
</g>
<g>
</g>
<g>
</g>
<g>
</g>
</svg>
