<?xml version="1.0" encoding="iso-8859-1"?>
<!-- Generator: Adobe Illustrator 19.0.0, SVG Export Plug-In . SVG Version: 6.00 Build 0)  -->
<svg version="1.1" id="Layer_1" xmlns="http://www.w3.org/2000/svg" xmlns:xlink="http://www.w3.org/1999/xlink" x="0px" y="0px"
	 viewBox="0 0 512 512" style="enable-background:new 0 0 512 512;" xml:space="preserve">
<path style="fill:#DC2C13;" d="M316.085,257.888c0,44.365-35.633,80.327-79.593,80.327h-80.667V177.561h80.667
	C280.451,177.561,316.085,213.525,316.085,257.888z"/>
<path style="fill:#B21100;" d="M308.584,223.837c4.803,10.34,7.501,21.875,7.501,34.05c0,44.365-35.633,80.327-79.593,80.327
	h-80.666v-68.1h80.667C268.387,270.114,295.885,251.175,308.584,223.837z"/>
<path style="fill:#234556;" d="M50.714,157.927h82.852v199.925H50.714C22.824,357.851,0,334.822,0,306.673v-97.571
	C0,180.957,22.824,157.927,50.714,157.927L50.714,157.927z"/>
<path style="fill:#071C23;" d="M133.565,357.851H66.783V157.959h66.783V357.851z"/>
<path style="fill:#415E70;" d="M101.422,157.925L209.283,30.27h27.209v455.238h-27.209L101.422,357.851V157.925L101.422,157.925z"/>
<path style="fill:#F2702F;" d="M357.308,107.985c33.906,37.467,53.352,92.052,53.352,149.758c0,55.579-18.261,108.814-50.1,146.06
	c-1.981,2.317-4.796,3.508-7.628,3.508c-2.298,0-4.609-0.785-6.495-2.39c-4.21-3.582-4.712-9.889-1.122-14.088
	c28.796-33.684,45.31-82.194,45.31-133.091c0-52.821-17.564-102.525-48.188-136.366c-3.708-4.096-3.384-10.416,0.723-14.115
	C347.266,103.564,353.601,103.888,357.308,107.985z M429.028,25.558c-3.708-4.097-10.042-4.419-14.148-0.72
	s-4.43,10.017-0.722,14.115c49.448,54.634,77.807,134.751,77.807,219.808c0,81.938-26.657,160.12-73.136,214.502
	c-3.59,4.201-3.086,10.507,1.124,14.088c1.885,1.604,4.196,2.389,6.493,2.389c2.832,0,5.646-1.191,7.628-3.509
	C483.597,428.287,512,345.377,512,258.76C512,168.817,481.757,83.819,429.028,25.558z"/>
<g>
</g>
<g>
</g>
<g>
</g>
<g>
</g>
<g>
</g>
<g>
</g>
<g>
</g>
<g>
</g>
<g>
</g>
<g>
</g>
<g>
</g>
<g>
</g>
<g>
</g>
<g>
</g>
<g>
</g>
</svg>
