<?xml version="1.0" encoding="iso-8859-1"?>
<!-- Generator: Adobe Illustrator 19.0.0, SVG Export Plug-In . SVG Version: 6.00 Build 0)  -->
<svg version="1.1" id="Layer_1" xmlns="http://www.w3.org/2000/svg" xmlns:xlink="http://www.w3.org/1999/xlink" x="0px" y="0px"
	 viewBox="0 0 511.903 511.903" style="enable-background:new 0 0 511.903 511.903;" xml:space="preserve">
<path style="fill:#5E9CEA;" d="M404.861,255.95c0,82.225-66.668,148.908-148.908,148.908c-82.241,0-148.908-66.684-148.908-148.908
	c0-82.24,66.667-148.923,148.908-148.923C338.193,107.027,404.861,173.71,404.861,255.95z"/>
<g>
	<path style="fill:#9ED36A;" d="M376.385,239.955c-29.318,2.233-38.707-14.948-34.849-20.197
		c6.686-9.106,38.473,12.996,40.581-3.374c0.375-2.843,7.404-10.199,13.684-11.715c-14.434-39.348-45.018-70.916-83.709-86.677
		c-1.281,4.374-2.421,7.936-3.062,8.248c-22.353,10.871-48.767,15.917-64.621,36.801c-2.218,2.937-5.17,8.481-1.984,11.98
		c3.937,4.343,14.449-0.125,19.635,0.25c14.34,1.031,54.842,10.466,56.154,17.026s-15.37,18.963-31.662,9.966
		c-4.811-2.64-23.977-5.936-30.491-7.107c-4.561-0.828-43.861,4.108-42.112,50.844c0.703,18.948,12.559,31.147,31.678,31.366
		c15.854,0.172,31.896-1.688,37.083,17.088c4.404,15.902,2.732,32.365,6.654,48.188c1.577,6.373,4.936,15.323,13.012,16.011
		c12.23,1.047,20.446-7.17,27.803-15.698c5.858-6.826,13.262-12.73,17.62-20.696c6.936-12.668,5.03-27.727,12.355-40.41
		C366.06,271.634,385.664,239.252,376.385,239.955z"/>
	<path style="fill:#9ED36A;" d="M154.828,284.957c-4.655-6.778-9.997-13.339-14.792-20.024c-4.467-6.217-21.899-34.537-29.991-38.88
		c-1.968,9.653-2.999,19.65-2.999,29.897c0,36.239,12.949,69.447,34.474,95.268c0.547,0.672,13.48-8.949,14.636-9.918
		c4.764-4.046,8.763-8.998,10.559-15.09C170.885,312.012,162.684,296.36,154.828,284.957z"/>
</g>
<path style="fill:#D94452;" d="M501.237,245.281c-5.889,0-10.669,4.78-10.669,10.669c0,31.678-6.186,62.388-18.416,91.301
	c-11.824,27.929-28.741,53.03-50.281,74.57c-21.557,21.557-46.658,38.473-74.587,50.297c-28.897,12.216-59.622,18.417-91.3,18.417
	s-62.403-6.201-91.316-18.417c-27.929-11.824-53.015-28.74-74.571-50.297c-5.42-5.42-10.543-11.059-15.354-16.916h53.281l0,0l0,0
	c5.889,0,10.653-4.78,10.653-10.669s-4.764-10.653-10.653-10.653l0,0l0,0H53.64c-0.516,0-1.015,0.047-1.5,0.109
	c-0.891,0.125-1.75,0.359-2.562,0.688c-0.031,0.016-0.062,0.016-0.094,0.031c-0.578,0.25-1.141,0.547-1.656,0.891
	c-0.047,0.031-0.109,0.062-0.156,0.094c-0.234,0.156-0.453,0.344-0.688,0.516c-0.047,0.031-0.078,0.062-0.125,0.094
	c-0.172,0.141-0.328,0.297-0.468,0.438c-0.094,0.094-0.203,0.172-0.297,0.25c-0.094,0.094-0.172,0.203-0.25,0.297
	c-0.156,0.156-0.297,0.296-0.438,0.468c-0.031,0.047-0.062,0.094-0.094,0.125c-0.188,0.234-0.359,0.453-0.515,0.703
	c-0.031,0.047-0.062,0.094-0.094,0.141c-0.828,1.265-1.391,2.733-1.609,4.312c-0.078,0.5-0.125,0.983-0.125,1.499v74.978
	c0,5.889,4.78,10.668,10.668,10.668s10.668-4.779,10.668-10.668v-43.705c46.876,52.967,115.371,86.363,191.676,86.363
	c141.332,0,255.922-114.59,255.922-255.922C511.906,250.061,507.127,245.281,501.237,245.281z"/>
<path style="fill:#EC5564;" d="M164.668,39.766c28.913-12.216,59.638-18.417,91.316-18.417s62.402,6.201,91.3,18.417
	c27.944,11.824,53.03,28.741,74.587,50.297c5.311,5.326,10.355,10.871,15.104,16.62h-53.03c-5.889,0-10.669,4.764-10.669,10.652
	c0,5.89,4.78,10.669,10.669,10.669h74.383c0.734,0,1.453-0.078,2.141-0.219c0.141-0.031,0.266-0.062,0.391-0.109
	c0.219-0.047,0.422-0.094,0.641-0.156c0.031-0.016,0.078-0.031,0.109-0.047c3.904-1.265,6.811-4.701,7.294-8.888
	c0.047-0.406,0.078-0.828,0.078-1.25V42.672c0-5.889-4.765-10.653-10.653-10.653s-10.668,4.765-10.668,10.653v43.705
	C400.767,33.409,332.273,0.028,255.984,0.028C115.012,0.028,0.687,113.993,0.062,254.809C0.031,255.184,0,255.559,0,255.95
	c0,5.889,4.78,10.653,10.668,10.653s10.669-4.764,10.669-10.653h0.047c0-31.693,6.201-62.402,18.432-91.315
	c11.809-27.93,28.726-53.031,50.281-74.571C111.653,68.508,136.739,51.591,164.668,39.766z"/>
<g style="opacity:0.2;">
	<path style="fill:#FFFFFF;" d="M255.953,107.027c-3.593,0-7.139,0.141-10.669,0.39c77.273,5.468,138.255,69.87,138.255,148.533
		c0,78.648-60.981,143.051-138.255,148.518c3.53,0.25,7.076,0.391,10.669,0.391c82.24,0,148.908-66.684,148.908-148.908
		C404.861,173.71,338.193,107.027,255.953,107.027z"/>
</g>
<g>
</g>
<g>
</g>
<g>
</g>
<g>
</g>
<g>
</g>
<g>
</g>
<g>
</g>
<g>
</g>
<g>
</g>
<g>
</g>
<g>
</g>
<g>
</g>
<g>
</g>
<g>
</g>
<g>
</g>
</svg>
