<svg width="128px" height="128px" viewBox="0 0 128 128" xmlns="http://www.w3.org/2000/svg" xmlns:xlink="http://www.w3.org/1999/xlink" aria-hidden="true" role="img" class="iconify iconify--noto" preserveAspectRatio="xMidYMid meet"><path d="M64.57 2.87c-41.01 0-40.68 37.92-40.68 38.52c0 24.56 1.88 59.25 11.71 72.9c3.9 5.41 11.43 5.71 11.43 5.71l16.97-.02l16.97.02s7.54-.3 11.43-5.71c9.83-13.65 11.71-48.34 11.71-72.9c-.01-.6 1.47-38.52-39.54-38.52z" fill="#ab872f"></path><radialGradient id="IconifyId17ecdb2904d178eab23448" cx="64" cy="69.561" r="47.532" gradientTransform="matrix(1 0 0 -1.1901 0 141.221)" gradientUnits="userSpaceOnUse"><stop offset=".794" stop-color="#bfa055" stop-opacity="0"></stop><stop offset="1" stop-color="#bfa055"></stop></radialGradient><path d="M64.57 2.87c-41.01 0-40.68 37.92-40.68 38.52c0 24.56 1.88 59.25 11.71 72.9c3.9 5.41 11.43 5.71 11.43 5.71l16.97-.02l16.97.02s7.54-.3 11.43-5.71c9.83-13.65 11.71-48.34 11.71-72.9c-.01-.6 1.47-38.52-39.54-38.52z" fill="url(#IconifyId17ecdb2904d178eab23448)"></path><linearGradient id="IconifyId17ecdb2904d178eab23449" gradientUnits="userSpaceOnUse" x1="64" y1="49.342" x2="64" y2="5.993" gradientTransform="matrix(1 0 0 -1 0 128)"><stop offset=".001" stop-color="#f1f1f1"></stop><stop offset=".336" stop-color="#eee"></stop><stop offset=".629" stop-color="#e3e3e3"></stop><stop offset=".905" stop-color="#d1d1d1"></stop><stop offset="1" stop-color="#c9c9c9"></stop></linearGradient><path d="M64.14 96.46H64c-25.65.03-52 7.1-52 24.99v3.01h104v-3.01c0-16.86-26.1-24.99-51.86-24.99z" fill="url(#IconifyId17ecdb2904d178eab23449)"></path><path d="M54.92 90.54v20.96c0 5.26 3.7 9.53 8.26 9.53h1.65c4.56 0 8.26-4.26 8.26-9.53V90.54H54.92z" fill="#c48e6a"></path><path fill="#81d4fa" d="M52.66 102.46l3.85 22H71.9l3.44-22z"></path><linearGradient id="IconifyId17ecdb2904d178eab23450" gradientUnits="userSpaceOnUse" x1="50.531" y1="3.947" x2="50.531" y2="31.497" gradientTransform="matrix(1 0 0 -1 0 128)"><stop offset="0" stop-color="#c9c9c9"></stop><stop offset=".208" stop-color="#dfdfdf"></stop><stop offset=".45" stop-color="#f1f1f1"></stop><stop offset=".706" stop-color="#fcfcfc"></stop><stop offset="1" stop-color="#fff"></stop></linearGradient><path d="M54.88 96.41c-5.92.43-8.48.93-8.48.93l-3.29 7.62l5.25 4.36l-2.88 6.11l5.58 9.04H57.95l-3.07-28.06z" fill="url(#IconifyId17ecdb2904d178eab23450)"></path><linearGradient id="IconifyId17ecdb2904d178eab23451" gradientUnits="userSpaceOnUse" x1="77.469" y1="3.947" x2="77.469" y2="31.497" gradientTransform="matrix(1 0 0 -1 0 128)"><stop offset="0" stop-color="#c9c9c9"></stop><stop offset=".208" stop-color="#dfdfdf"></stop><stop offset=".45" stop-color="#f1f1f1"></stop><stop offset=".706" stop-color="#fcfcfc"></stop><stop offset="1" stop-color="#fff"></stop></linearGradient><path d="M84.89 104.96l-3.29-7.62s-2.56-.5-8.48-.93l-3.07 28.05H76.96l5.58-9.04l-2.88-6.11l5.23-4.35z" fill="url(#IconifyId17ecdb2904d178eab23451)"></path><path d="M32.94 104.8c1.57-.82 3.4-2.02 4.25-2.76c1.92-1.67 6.47-5.97 9.86-2.94c3.66 3.21-.1 8.27-1.55 10.37c-.72 1.05-1.27 2.21-1.72 3.39" fill="none" stroke="#03a9f4" stroke-width="3" stroke-miterlimit="10"></path><linearGradient id="IconifyId17ecdb2904d178eab23452" gradientUnits="userSpaceOnUse" x1="34.006" y1="23.046" x2="24.6" y2="12.214" gradientTransform="matrix(1 0 0 -1 0 128)"><stop offset="0" stop-color="#757575"></stop><stop offset="1"></stop></linearGradient><path d="M29.79 111.82c-.49.08-1.02.29-1.54-.21c-.34-.33-.77-1.27-.65-2.08c.12-.82 1.03-1.16 2.97-1.99c1.51-.64 2.9-1.29 4.16-2.14l-1.88-2.34s-2.17 1.22-3.35 1.68c-2.09.8-4.47 1.71-4.86 4.35c-.42 2.84 1.14 4.86 2.34 5.77c.98.75 1.92 1.11 2.83 1.17c1.41.09 2.35-.83 2.35-2.25s-1.39-2.13-2.37-1.96z" fill="url(#IconifyId17ecdb2904d178eab23452)"></path><linearGradient id="IconifyId17ecdb2904d178eab23453" gradientUnits="userSpaceOnUse" x1="42.813" y1="15.398" x2="33.407" y2="4.566" gradientTransform="matrix(1 0 0 -1 0 128)"><stop offset="0" stop-color="#757575"></stop><stop offset="1"></stop></linearGradient><path d="M37.03 117.25c-.01.5-.14 1.05.43 1.49c.38.29 1.37.58 2.15.35c.79-.24 1-1.18 1.54-3.22c.42-1.58.86-3.06 1.52-4.43l2.58 1.52s-.9 2.32-1.18 3.56c-.49 2.19-1.05 4.67-3.61 5.43c-2.75.83-4.98-.44-6.05-1.49c-.88-.87-1.37-1.74-1.56-2.64c-.29-1.38.49-2.45 1.89-2.65s2.31 1.09 2.29 2.08z" fill="url(#IconifyId17ecdb2904d178eab23453)"></path><path d="M54.92 94.14c-4.63.09-7.74 2.52-9.01 3.98l2.27 1.96c.03-.03 2.31-2.84 6.78-2.97l-.04-2.97z" fill="#03a9f4"></path><path d="M86.26 102.95c-2.43-5.47-6.19-7.55-8.21-8.3c-1.85-.69-3.65-.97-4.97-1.08v3.01c1.08.1 2.49.34 3.93.88c1.58.59 4.53 2.24 6.51 6.71c2.78 6.26 3.48 7.89 3.49 7.89l2.75-1.19s-.7-1.63-3.5-7.92z" fill="#03a9f4"></path><linearGradient id="IconifyId17ecdb2904d178eab23454" gradientUnits="userSpaceOnUse" x1="87.856" y1="18.427" x2="93.231" y2="7.052" gradientTransform="matrix(1 0 0 -1 0 128)"><stop offset="0" stop-color="#757575"></stop><stop offset="1"></stop></linearGradient><circle cx="90.2" cy="114.53" r="7" fill="url(#IconifyId17ecdb2904d178eab23454)"></circle><circle cx="90.2" cy="114.53" r="4" fill="#9e9e9e"></circle><g><path d="M64 16.04c-17.2 0-33.13 12.79-33.13 39.91c0 21.78 13.49 34.67 25.23 38.83c2.8.99 5.5 1.49 7.9 1.49c2.38 0 5.07-.49 7.85-1.47c11.76-4.14 25.28-17.03 25.28-38.84c0-27.13-15.93-39.92-33.13-39.92z" fill="#e0bb95"></path></g><g fill="#ab872f"><path d="M54.8 49.82c-.93-1.23-3.07-3.01-7.23-3.01s-6.31 1.79-7.23 3.01c-.41.54-.31 1.17-.02 1.55c.26.35 1.04.68 1.9.39s2.54-1.16 5.35-1.18c2.81.02 4.49.89 5.35 1.18c.86.29 1.64-.03 1.9-.39c.28-.38.39-1.01-.02-1.55z"></path><path d="M87.67 49.82c-.93-1.23-3.07-3.01-7.23-3.01s-6.31 1.79-7.23 3.01c-.41.54-.31 1.17-.02 1.55c.26.35 1.04.68 1.9.39s2.54-1.16 5.35-1.18c2.81.02 4.49.89 5.35 1.18c.86.29 1.64-.03 1.9-.39c.28-.38.39-1.01-.02-1.55z"></path></g><g fill="#5d4037"><ellipse cx="47.56" cy="58.81" rx="4.93" ry="5.1"></ellipse><ellipse cx="80.44" cy="58.81" rx="4.93" ry="5.1"></ellipse></g><path d="M72.42 76.14c-3.18 1.89-13.63 1.89-16.81 0c-1.83-1.09-3.7.58-2.94 2.24c.75 1.63 6.44 5.42 11.37 5.42s10.55-3.79 11.3-5.42c.75-1.66-1.09-3.33-2.92-2.24z" fill="#6d4c41"></path><path d="M67.86 68.06c-.11-.04-.21-.07-.32-.08h-7.08c-.11.01-.22.04-.32.08c-.64.26-.99.92-.69 1.63c.3.71 1.71 2.69 4.55 2.69s4.25-1.99 4.55-2.69c.3-.71-.05-1.37-.69-1.63z" fill="#c48e6a"></path><g><path d="M64.57 2.87c-41.01 0-40.68 37.92-40.68 38.52c0 7.76.19 16.53.75 25.32l6.72-.02c-.06-2.92 1.99-20.97 8.08-22.34c22.36-5.03 35.01-16.89 35.01-16.89c3.29 7.18 13.58 14.19 17.27 16.86c3.03 2.19 4.27 18.55 4.21 22.38h7.4c0-.05.02-.1.02-.16c.56-8.75.74-17.46.74-25.17c.01-.58 1.49-38.5-39.52-38.5z" fill="#ab872f"></path><radialGradient id="IconifyId17ecdb2904d178eab23455" cx="64.333" cy="65.537" r="49.788" gradientTransform="matrix(1 0 0 -1.2135 0 141.995)" gradientUnits="userSpaceOnUse"><stop offset=".794" stop-color="#bfa055" stop-opacity="0"></stop><stop offset="1" stop-color="#bfa055"></stop></radialGradient><path d="M64.57 2.87c-41.01 0-40.68 37.92-40.68 38.52c0 7.76.19 16.53.75 25.32l6.72-.02c-.06-2.92 1.99-20.97 8.08-22.34c22.36-5.03 35.01-16.89 35.01-16.89c3.29 7.18 13.58 14.19 17.27 16.86c3.03 2.19 4.27 18.55 4.21 22.38h7.4c0-.05.02-.1.02-.16c.56-8.75.74-17.46.74-25.17c.01-.58 1.49-38.5-39.52-38.5z" fill="url(#IconifyId17ecdb2904d178eab23455)"></path></g></svg>