<?xml version="1.0" encoding="iso-8859-1"?>
<!-- Generator: Adobe Illustrator 19.0.0, SVG Export Plug-In . SVG Version: 6.00 Build 0)  -->
<svg version="1.1" id="Layer_1" xmlns="http://www.w3.org/2000/svg" xmlns:xlink="http://www.w3.org/1999/xlink" x="0px" y="0px"
	 viewBox="0 0 512.22 512.22" style="enable-background:new 0 0 512.22 512.22;" xml:space="preserve">
<g>
	<g>
		<path style="fill:#464F5D;" d="M229.636,123.595c-0.265,0-0.538-0.009-0.812-0.035l-64.247-5.844
			c-22.952-2.083-45.215-9.94-64.397-22.731c-17.832-11.882-32.865-28.001-43.502-46.61l-20.092-35.16
			c-2.428-4.228-0.953-9.622,3.284-12.041c4.22-2.436,9.622-0.953,12.041,3.284l20.1,35.16
			c9.278,16.243,22.413,30.305,37.959,40.678c16.746,11.158,36.175,18.017,56.214,19.836l64.247,5.844
			c4.855,0.441,8.43,4.74,7.989,9.587C237.996,120.152,234.156,123.595,229.636,123.595"/>
		<path style="fill:#464F5D;" d="M282.584,123.595c-4.52,0-8.36-3.443-8.783-8.033c-0.441-4.846,3.134-9.145,7.989-9.587
			l64.247-5.844c20.039-1.818,39.468-8.678,56.214-19.836c15.545-10.372,28.681-24.435,37.959-40.678l20.1-35.16
			c2.41-4.237,7.804-5.72,12.041-3.284c4.237,2.419,5.711,7.812,3.284,12.041l-20.092,35.16
			c-10.637,18.609-25.671,34.728-43.502,46.61c-19.182,12.791-41.445,20.648-64.397,22.731l-64.247,5.844
			C283.122,123.586,282.849,123.595,282.584,123.595"/>
		<path style="fill:#464F5D;" d="M17.774,282.482c-2.595,0-5.155-1.13-6.903-3.31c-3.046-3.814-2.428-9.366,1.377-12.412
			l44.138-35.31c1.571-1.254,3.505-1.933,5.517-1.933h61.793c4.882,0,8.828,3.955,8.828,8.828s-3.946,8.828-8.828,8.828H65.001
			l-41.719,33.377C21.649,281.847,19.707,282.482,17.774,282.482"/>
		<path style="fill:#464F5D;" d="M494.446,282.482c-1.933,0-3.875-0.636-5.508-1.933l-41.719-33.377h-58.695
			c-4.882,0-8.828-3.955-8.828-8.828s3.946-8.828,8.828-8.828h61.793c2.013,0,3.946,0.68,5.517,1.933l44.138,35.31
			c3.805,3.046,4.423,8.598,1.377,12.412C499.601,281.352,497.041,282.482,494.446,282.482"/>
	</g>
	<path style="fill:#DBCB95;" d="M359.273,180.103c-24.223-30.349-57.335-52.25-94.685-62.914l-8.483-2.428l-8.474,2.428
		c-37.35,10.664-70.462,32.565-94.685,62.914c-49.664,62.226-126.358,176.34-126.358,287.762c0,0,0.371,68.414,88.276,35.31
		c0,0,104.828-45.612,141.241-97.103c36.414,51.491,141.241,97.103,141.241,97.103c87.905,33.103,88.276-35.31,88.276-35.31
		C485.623,356.442,408.937,242.328,359.273,180.103"/>
	<path style="fill:#B7A676;" d="M264.592,117.185l-8.483-2.428l-8.483,2.428c-0.124,0.026-0.23,0.079-0.344,0.106v288.777
		c0,2.834,1.421,5.252,3.513,6.859c1.88-2.269,3.681-4.555,5.314-6.859c1.633,2.304,3.443,4.59,5.332,6.859
		c2.074-1.615,3.496-4.025,3.496-6.859V117.291C264.822,117.264,264.716,117.211,264.592,117.185"/>
	<g>
		<path style="fill:#464F5D;" d="M211.972,88.284c-19.474,0-35.31-15.837-35.31-35.31s15.837-35.31,35.31-35.31
			c4.882,0,8.828,3.955,8.828,8.828s-3.946,8.828-8.828,8.828c-9.737,0-17.655,7.918-17.655,17.655s7.918,17.655,17.655,17.655
			c4.882,0,8.828,3.955,8.828,8.828S216.853,88.284,211.972,88.284"/>
		<path style="fill:#464F5D;" d="M300.248,88.284c-4.882,0-8.828-3.955-8.828-8.828s3.946-8.828,8.828-8.828
			c9.737,0,17.655-7.918,17.655-17.655s-7.918-17.655-17.655-17.655c-4.882,0-8.828-3.955-8.828-8.828s3.946-8.828,8.828-8.828
			c19.474,0,35.31,15.837,35.31,35.31S319.721,88.284,300.248,88.284"/>
	</g>
	<path style="fill:#95A5A5;" d="M211.972,88.284c0-19.5,19.756-35.31,44.138-35.31s44.138,15.81,44.138,35.31
		s-19.756,35.31-44.138,35.31S211.972,107.784,211.972,88.284"/>
	<g>
		<path style="fill:#B7A676;" d="M176.661,379.586c0,19.5-15.81,35.31-35.31,35.31s-35.31-15.81-35.31-35.31
			s15.81-35.31,35.31-35.31S176.661,360.086,176.661,379.586"/>
		<path style="fill:#B7A676;" d="M406.179,379.586c0,19.5-15.81,35.31-35.31,35.31c-19.5,0-35.31-15.81-35.31-35.31
			s15.81-35.31,35.31-35.31C390.369,344.275,406.179,360.086,406.179,379.586"/>
	</g>
</g>
<g>
</g>
<g>
</g>
<g>
</g>
<g>
</g>
<g>
</g>
<g>
</g>
<g>
</g>
<g>
</g>
<g>
</g>
<g>
</g>
<g>
</g>
<g>
</g>
<g>
</g>
<g>
</g>
<g>
</g>
</svg>
