<?xml version="1.0" encoding="iso-8859-1"?>
<!-- Generator: Adobe Illustrator 19.0.0, SVG Export Plug-In . SVG Version: 6.00 Build 0)  -->
<svg version="1.1" id="Layer_1" xmlns="http://www.w3.org/2000/svg" xmlns:xlink="http://www.w3.org/1999/xlink" x="0px" y="0px"
	 viewBox="0 0 496 496" style="enable-background:new 0 0 496 496;" xml:space="preserve">
<g>
	<g>
		<g>
			<path d="M226.144,94.736L248,68.496l21.864,26.24C279.016,105.704,292.456,112,306.736,112H368V96h-16V32h-16v64h-16V32h-16
				v63.696c-5.824-0.504-11.336-2.464-16-5.856V32h-9.584l3.736-4.488C288.248,20.192,297.208,16,306.736,16H368V0h-61.264
				c-14.28,0-27.72,6.296-36.872,17.264L248,43.504l-21.864-26.24C216.984,6.296,203.544,0,189.264,0H128v16h16v64h16V16h16v64h16
				V16.304c5.824,0.504,11.336,2.464,16,5.856V80h9.584l-3.736,4.488C207.752,91.808,198.792,96,189.264,96H128v16h61.264
				C203.544,112,216.984,105.704,226.144,94.736z M272,39.696v32.608L258.416,56L272,39.696z M224,39.704L237.584,56L224,72.304
				V39.704z"/>
			<rect x="240" y="152" width="16" height="16"/>
			<rect x="240" y="120" width="16" height="16"/>
			<rect x="256" y="136" width="16" height="16"/>
			<rect x="224" y="136" width="16" height="16"/>
			<rect x="400" y="272" width="16" height="16"/>
			<rect x="400" y="240" width="16" height="16"/>
			<rect x="416" y="256" width="16" height="16"/>
			<rect x="384" y="256" width="16" height="16"/>
			<rect x="32" y="208" width="16" height="16"/>
			<rect x="32" y="176" width="16" height="16"/>
			<rect x="48" y="192" width="16" height="16"/>
			<rect x="16" y="192" width="16" height="16"/>
			<rect x="112" y="320" width="16" height="16"/>
			<rect x="112" y="288" width="16" height="16"/>
			<rect x="128" y="304" width="16" height="16"/>
			<rect x="96" y="304" width="16" height="16"/>
			<path d="M269.96,404.232l-40.784-8.16C221.536,394.544,216,387.792,216,380s5.536-14.544,13.96-16.232
				C245.048,360.752,256,347.392,256,332v-12h16v-38.784c10.088-6.808,16-18.376,16-33.216c0-1.104-0.072-2.208-0.128-3.32
				C407.056,225.392,496,121.608,496,0h-16c0,113.808-83.264,210.928-194.816,228.904c-2.424-8.368-6.312-16.256-11.336-22.568
				C376.384,193.56,456,105.936,456,0h-16c0,105.864-86.136,192-192,192S56,105.864,56,0H40
				c0,105.936,79.616,193.56,182.152,206.336c-5.016,6.312-8.912,14.2-11.336,22.568C99.264,210.928,16,113.808,16,0H0
				c0,121.608,88.944,225.392,208.128,244.68c-0.056,1.112-0.128,2.216-0.128,3.32c0,14.832,5.912,26.408,16,33.216V320h16v12
				c0,7.792-5.536,14.544-13.96,16.232C210.952,351.248,200,364.608,200,380c0,15.392,10.952,28.752,26.04,31.768l40.784,8.16
				C274.464,421.456,280,428.208,280,436s-5.536,14.544-13.96,16.232C250.952,455.248,240,468.608,240,484v12h16v-12
				c0-7.792,5.536-14.544,13.96-16.232C285.048,464.752,296,451.392,296,436C296,420.608,285.048,407.248,269.96,404.232z M256,304
				h-16v-16.664c2.56,0.408,5.208,0.664,8,0.664s5.44-0.256,8-0.664V304z M224,248c0-19.44,12.336-40,24-40s24,20.56,24,40
				c0,20.88-15.04,24-24,24C239.04,272,224,268.88,224,248z"/>
		</g>
	</g>
</g>
<g>
</g>
<g>
</g>
<g>
</g>
<g>
</g>
<g>
</g>
<g>
</g>
<g>
</g>
<g>
</g>
<g>
</g>
<g>
</g>
<g>
</g>
<g>
</g>
<g>
</g>
<g>
</g>
<g>
</g>
</svg>
