<?xml version="1.0" encoding="iso-8859-1"?>
<!-- Generator: Adobe Illustrator 19.0.0, SVG Export Plug-In . SVG Version: 6.00 Build 0)  -->
<svg version="1.1" id="Layer_1" xmlns="http://www.w3.org/2000/svg" xmlns:xlink="http://www.w3.org/1999/xlink" x="0px" y="0px"
	 viewBox="0 0 512 512" style="enable-background:new 0 0 512 512;" xml:space="preserve">
<g>
	<path style="fill:#704324;" d="M107.355,414.28c49.548,0,49.548-22.021,99.097-22.021S256,414.28,305.438,414.28
		c49.658,0,49.658-22.021,99.207-22.021s49.548,22.021,99.097,22.021v71.57H8.258v-93.591
		C57.806,392.258,57.806,414.28,107.355,414.28z"/>
	<path style="fill:#704324;" d="M503.742,199.57v104.602c-49.548,0-49.548-22.022-99.097-22.022s-49.548,22.022-99.207,22.022
		c-49.438,0-49.438-22.022-98.987-22.022s-49.548,22.022-99.097,22.022s-49.548-22.022-99.097-22.022V199.57H503.742z"/>
</g>
<path style="fill:#A26234;" d="M305.438,304.172c49.658,0,49.658-22.022,99.207-22.022s49.548,22.022,99.097,22.022V414.28
	c-49.548,0-49.548-22.021-99.097-22.021s-49.548,22.021-99.207,22.021c-49.438,0-49.438-22.021-98.987-22.021
	s-49.548,22.021-99.097,22.021s-49.548-22.021-99.097-22.021V282.151c49.548,0,49.548,22.022,99.097,22.022
	s49.548-22.022,99.097-22.022S256,304.172,305.438,304.172z"/>
<path style="fill:#A58763;" d="M151.398,161.032c0,0,7.818-46.796,34.133-83.241l4.404,0.661h136.974
	c25.985,36.335,33.693,82.581,33.693,82.581s7.818-46.796,34.133-83.241l4.404,0.661h104.602V199.57H8.258V78.452h109.447
	C143.69,114.787,151.398,161.032,151.398,161.032z"/>
<g>
	<path style="fill:#61391B;" d="M305.438,414.28c-49.438,0-49.438-22.021-98.987-22.021s-49.548,22.021-99.097,22.021
		s-49.548-22.021-99.097-22.021v93.591h495.484v-71.57c-49.548,0-49.548-22.021-99.097-22.021S355.097,414.28,305.438,414.28z"/>
	<path style="fill:#61391B;" d="M206.452,282.151c32.424,0,43.675,9.411,61.403,15.929c-32.288-28.005-59.845-61.273-81.369-98.51
		H8.258v82.581c49.548,0,49.548,22.022,99.097,22.022S156.903,282.151,206.452,282.151z"/>
</g>
<path style="fill:#8E562B;" d="M267.854,298.08c-17.727-6.518-28.978-15.929-61.403-15.929c-49.548,0-49.548,22.022-99.097,22.022
	s-49.548-22.022-99.097-22.022v110.108c49.548,0,49.548,22.021,99.097,22.021s49.548-22.021,99.097-22.021
	S256,414.28,305.438,414.28c49.658,0,49.658-22.021,99.207-22.021s49.548,22.021,99.097,22.021v-22.438
	C413.605,388.045,331.581,353.35,267.854,298.08z"/>
<path style="fill:#997D5C;" d="M157.399,136.948c-4.323,14.181-6.001,24.084-6.001,24.084s-7.708-46.245-33.693-82.581H8.258V199.57
	h178.227C175.019,179.736,165.228,158.82,157.399,136.948z"/>
<path d="M411.691,70.194c10.268-10.82,21.681-18.348,34.078-22.437l-5.173-15.685c-20.068,6.619-37.75,20.374-52.555,40.885
	c-7.922,10.972-14.22,22.758-19.18,33.998V17.892h-16.516v89.068c-4.86-11.004-11.006-22.53-18.71-33.301
	c-14.859-20.857-32.695-34.847-53.015-41.585l-5.198,15.677c12.407,4.114,23.809,11.645,34.054,22.441H202.488
	c10.268-10.82,21.681-18.348,34.078-22.437l-5.173-15.685c-20.068,6.619-37.75,20.374-52.555,40.885
	c-7.922,10.972-14.22,22.758-19.18,33.998V17.892h-16.516v89.068c-4.86-11.004-11.006-22.53-18.709-33.301
	c-14.86-20.855-32.698-34.847-53.017-41.584l-5.197,15.677c12.407,4.114,23.809,11.645,34.054,22.441H0v423.914h79.827v-16.516
	H16.516v-76.84c17.644,1.046,27.539,5.443,37.936,10.064c12.966,5.763,26.375,11.722,52.902,11.722s39.936-5.959,52.902-11.722
	c11.917-5.296,23.173-10.299,46.195-10.299c23.033,0,34.285,5.007,46.199,10.307c12.944,5.759,26.329,11.714,52.788,11.714
	c26.593,0,40.026-5.963,53.016-11.73c11.921-5.293,23.181-10.292,46.191-10.292c23.021,0,34.278,5.002,46.195,10.299
	c11.546,5.132,23.45,10.415,44.644,11.512v55.264h-393.63v16.516H512V70.194H411.691z M457.547,395.722
	C444.581,389.959,431.172,384,404.645,384c-26.512,0-39.923,5.954-52.892,11.712c-11.942,5.302-23.222,10.309-46.315,10.309
	c-22.951,0-34.183-4.998-46.074-10.288C246.4,389.965,232.994,384,206.452,384c-26.527,0-39.936,5.959-52.902,11.722
	c-11.917,5.296-23.173,10.299-46.195,10.299s-34.278-5.002-46.195-10.299c-11.546-5.131-23.45-10.414-44.644-11.512v-93.566
	c17.644,1.046,27.539,5.443,37.936,10.064c12.966,5.763,26.375,11.722,52.902,11.722s39.936-5.959,52.902-11.722
	c11.917-5.296,23.173-10.299,46.195-10.299c23.033,0,34.285,5.007,46.199,10.307c12.944,5.759,26.329,11.714,52.788,11.714
	c26.593,0,40.026-5.963,53.016-11.73c11.921-5.293,23.181-10.292,46.191-10.292c23.021,0,34.278,5.002,46.195,10.299
	c11.546,5.132,23.45,10.415,44.644,11.512v93.566C477.84,404.74,467.945,400.343,457.547,395.722z M74.323,191.312v16.516h421.161
	v87.85c-17.644-1.046-27.539-5.443-37.936-10.064c-12.966-5.763-26.375-11.722-52.902-11.722c-26.512,0-39.923,5.953-52.892,11.712
	c-11.942,5.302-23.222,10.309-46.315,10.309c-22.951,0-34.183-4.998-46.074-10.288c-12.964-5.769-26.37-11.733-52.912-11.733
	c-26.527,0-39.936,5.959-52.902,11.722c-11.917,5.296-23.173,10.299-46.195,10.299s-34.278-5.002-46.195-10.299
	c-11.546-5.131-23.45-10.414-44.644-11.512v-66.275h35.785v-16.516H16.516v-55.054h79.828v-16.516H16.516V86.71h96.862
	c16.036,23.909,24.313,51.734,27.799,66.065H112.86v16.516h77.075v-16.516h-28.314c3.528-14.491,11.951-42.781,28.314-66.877v0.813
	h132.647c16.036,23.909,24.313,51.734,27.799,66.065h-28.316v16.516h77.075v-16.516h-28.314
	c3.528-14.491,11.951-42.781,28.314-66.877v0.813h96.344v33.032h-79.828v16.516h79.828v55.054H74.323z"/>
<rect x="74.323" y="251.871" style="fill:#FFFFFF;" width="27.527" height="16.516"/>
<rect x="101.849" y="229.849" width="27.527" height="16.516"/>
<rect x="178.925" y="229.849" style="fill:#FFFFFF;" width="27.527" height="16.516"/>
<rect x="283.527" y="251.871" width="27.527" height="16.516"/>
<rect x="426.667" y="229.849" style="fill:#FFFFFF;" width="27.527" height="16.516"/>
<rect x="426.667" y="350.968" width="27.527" height="16.516"/>
<rect x="305.548" y="350.968" style="fill:#FFFFFF;" width="27.527" height="16.516"/>
<rect x="283.527" y="328.946" width="27.527" height="16.516"/>
<rect x="173.419" y="328.946" width="27.527" height="16.516"/>
<rect x="52.301" y="350.968" width="27.527" height="16.516"/>
<rect x="107.355" y="350.968" style="fill:#FFFFFF;" width="27.527" height="16.516"/>
<rect x="41.29" y="439.054" width="27.527" height="16.516"/>
<rect x="173.419" y="417.032" style="fill:#FFFFFF;" width="27.527" height="16.516"/>
<rect x="217.462" y="439.054" width="27.527" height="16.516"/>
<rect x="448.688" y="439.054" width="27.527" height="16.516"/>
<rect x="360.602" y="439.054" style="fill:#FFFFFF;" width="27.527" height="16.516"/>
<rect x="206.452" y="119.742" width="22.022" height="16.516"/>
<rect x="222.968" y="141.763" width="22.022" height="16.516"/>
<rect x="289.032" y="119.742" width="22.022" height="16.516"/>
<rect x="57.806" y="152.774" width="22.022" height="16.516"/>
<rect x="432.172" y="152.774" width="22.022" height="16.516"/>
<g>
</g>
<g>
</g>
<g>
</g>
<g>
</g>
<g>
</g>
<g>
</g>
<g>
</g>
<g>
</g>
<g>
</g>
<g>
</g>
<g>
</g>
<g>
</g>
<g>
</g>
<g>
</g>
<g>
</g>
</svg>
