<?xml version="1.0" encoding="iso-8859-1"?>
<!-- Generator: Adobe Illustrator 19.0.0, SVG Export Plug-In . SVG Version: 6.00 Build 0)  -->
<svg version="1.1" id="Layer_1" xmlns="http://www.w3.org/2000/svg" xmlns:xlink="http://www.w3.org/1999/xlink" x="0px" y="0px"
	 viewBox="0 0 459.99 459.99" style="enable-background:new 0 0 459.99 459.99;" xml:space="preserve">
<g id="XMLID_1012_">
	<path id="XMLID_1013_" style="fill:#084B63;" d="M457.473,195.855C440.978,85.024,345.422,0,230,0C102.975,0,0,102.974,0,230
		c0,115.44,85.05,211.007,195.907,227.48c-0.053-0.019-0.086-0.031-0.086-0.031S457.45,195.82,457.473,195.855z"/>
	<path id="XMLID_1014_" style="fill:#06384A;" d="M457.45,195.82l-96.635-96.635l-3.535,3.536C324.706,70.147,279.706,50,230,50
		c-99.411,0-180,80.589-180,180c0,49.706,20.147,94.706,52.721,127.279l-3.535,3.536l96.635,96.635
		c69.662,10.412,143.185-11.186,196.814-64.815C446.264,339.005,467.862,265.482,457.45,195.82z"/>
	<path id="XMLID_1015_" style="fill:#419EBE;" d="M231,395c-91.127,0-166-73.873-166-165S138.873,65,230,65l10-10l-10-10
		C127.827,45,45,127.827,45,230s83.827,185,186,185l10-10L231,395z"/>
	<path id="XMLID_1016_" style="fill:#2089B0;" d="M230,65c91.127,0,165,73.873,165,165s-73.873,165-165,165v20
		c102.173,0,185-82.827,185-185S332.173,45,230,45V65z"/>
	<path id="XMLID_1017_" style="fill:#419EBE;" d="M125,230c0-57.99,47.01-105,105-105l10-10l-10-10c-69.036,0-125,55.964-125,125
		s55.964,125,125,125l10-10l-10-10C172.01,335,125,287.99,125,230z"/>
	<path id="XMLID_1018_" style="fill:#2089B0;" d="M230,105v20c57.99,0,105,47.01,105,105s-47.01,105-105,105v20
		c69.036,0,125-55.964,125-125S299.036,105,230,105z"/>
	<circle id="XMLID_1019_" style="fill:#F7B93F;" cx="230" cy="230" r="65"/>
	<path id="XMLID_1020_" style="fill:#F77A20;" d="M185,230c0,24.853,20.147,45,45,45l10-45l-10-45C205.147,185,185,205.147,185,230z
		"/>
	<path id="XMLID_1021_" style="fill:#DA5B66;" d="M323.744,353.744c0,16.569,13.432,30,30,30l10-30l-10-30
		C337.175,323.744,323.744,337.175,323.744,353.744z"/>
	<path id="XMLID_1022_" style="fill:#D93722;" d="M353.744,323.744v60c16.569,0,30-13.431,30-30S370.312,323.744,353.744,323.744z"
		/>
	<path id="XMLID_1023_" style="fill:#E47682;" d="M71.256,106.256c0,19.33,15.67,35,35,35l10-35l-10-35
		C86.926,71.256,71.256,86.926,71.256,106.256z"/>
	<path id="XMLID_1024_" style="fill:#DA5B66;" d="M106.256,71.256v70c19.33,0,35-15.67,35-35S125.586,71.256,106.256,71.256z"/>
	<path id="XMLID_1025_" style="fill:#EA5A20;" d="M291.317,148.683c0,11.046,8.954,20,20,20l10-20l-10-20
		C300.271,128.683,291.317,137.637,291.317,148.683z"/>
	<path id="XMLID_1026_" style="fill:#D93722;" d="M311.317,128.683v40c11.046,0,20-8.954,20-20S322.363,128.683,311.317,128.683z"/>
	<path id="XMLID_1027_" style="fill:#EA5A20;" d="M230,185v90c24.853,0,45-20.147,45-45S254.853,185,230,185z"/>
</g>
<g>
</g>
<g>
</g>
<g>
</g>
<g>
</g>
<g>
</g>
<g>
</g>
<g>
</g>
<g>
</g>
<g>
</g>
<g>
</g>
<g>
</g>
<g>
</g>
<g>
</g>
<g>
</g>
<g>
</g>
</svg>
