<?xml version="1.0" encoding="iso-8859-1"?>
<!-- Generator: Adobe Illustrator 19.0.0, SVG Export Plug-In . SVG Version: 6.00 Build 0)  -->
<svg version="1.1" id="Layer_1" xmlns="http://www.w3.org/2000/svg" xmlns:xlink="http://www.w3.org/1999/xlink" x="0px" y="0px"
	 viewBox="0 0 512 512" style="enable-background:new 0 0 512 512;" xml:space="preserve">
<circle style="fill:#273B7A;" cx="256" cy="256" r="256"/>
<path style="fill:#121149;" d="M369.778,141.705l-12.347,26.098l-54.024-54.025h-94.815l47.33,47.33l-1.071,101.214l-61.188-69.256
	l-45.12,34.611c0,0,9.271,12.497,31.211,35.218l-7.192,5.634l85.306,85.306L256,415.806l82.579,82.579
	c92.824-31.615,161.668-115.048,172.056-215.823L369.778,141.705z"/>
<path style="fill:#FEE187;" d="M341.333,181.353c-3.808,0-6.896,3.088-6.896,6.896v28.444c0,11.883-9.666,21.549-21.549,21.549
	h-28.444c-8.114,0-15.577,2.777-21.549,7.394V110.849c0-3.808-3.088-6.896-6.896-6.896c-3.808,0-6.896,3.088-6.896,6.896V274.08
	c-5.972-4.615-13.434-7.394-21.549-7.394h-28.444c-11.883,0-21.549-9.666-21.549-21.549v-28.444c0-3.808-3.088-6.896-6.896-6.896
	c-3.808,0-6.896,3.088-6.896,6.896v28.444c0,19.487,15.853,35.34,35.34,35.34h28.444c11.883,0,21.549,9.666,21.549,21.549v85.333
	c0,3.808,3.088,6.896,6.896,6.896c3.808,0,6.896-3.088,6.896-6.896V273.582c0-11.883,9.666-21.549,21.549-21.549h28.444
	c19.487,0,35.34-15.853,35.34-35.34v-28.444C348.229,184.441,345.141,181.353,341.333,181.353z"/>
<path style="fill:#FFC61B;" d="M341.333,181.353c-3.808,0-6.896,3.088-6.896,6.896v28.444c0,11.883-9.666,21.549-21.549,21.549
	h-28.444c-8.114,0-15.577,2.777-21.549,7.394V110.849c0-3.808-3.088-6.896-6.896-6.896c-0.197,0-0.381,0.041-0.574,0.059v290.187
	c0.193,0.016,0.378,0.059,0.574,0.059c3.808,0,6.896-3.088,6.896-6.896V273.584c0-11.883,9.666-21.549,21.549-21.549h28.444
	c19.487,0,35.34-15.853,35.34-35.34V188.25C348.229,184.441,345.141,181.353,341.333,181.353z"/>
<rect x="312.889" y="141.705" style="fill:#EAA22F;" width="56.889" height="56.889"/>
<circle style="fill:#FFC61B;" cx="170.667" cy="209.799" r="28.444"/>
<circle style="fill:#71E2EF;" cx="256" cy="387.362" r="28.444"/>
<path style="fill:#02B2B2;" d="M256,358.917c-0.193,0-0.381,0.026-0.574,0.029v56.83c0.193,0.003,0.381,0.029,0.574,0.029
	c15.71,0,28.444-12.734,28.444-28.444C284.444,371.652,271.71,358.917,256,358.917z"/>
<polygon style="fill:#71E2EF;" points="208.593,113.778 256,64.821 303.407,113.778 "/>
<polygon style="fill:#02B2B2;" points="256,64.821 255.426,65.414 255.426,113.778 303.407,113.778 "/>
<g>
</g>
<g>
</g>
<g>
</g>
<g>
</g>
<g>
</g>
<g>
</g>
<g>
</g>
<g>
</g>
<g>
</g>
<g>
</g>
<g>
</g>
<g>
</g>
<g>
</g>
<g>
</g>
<g>
</g>
</svg>
